<?xml version="1.0" encoding="UTF-8"?>
<!DOCTYPE svg PUBLIC "-//W3C//DTD SVG 1.1//EN" "http://www.w3.org/Graphics/SVG/1.1/DTD/svg11.dtd">
<!-- Creator: CorelDRAW -->
<svg xmlns="http://www.w3.org/2000/svg" xml:space="preserve" width="8.5in" height="11in" shape-rendering="geometricPrecision" text-rendering="geometricPrecision" image-rendering="optimizeQuality" fill-rule="evenodd" clip-rule="evenodd"
viewBox="0 0 8.5 11"
 xmlns:xlink="http://www.w3.org/1999/xlink">
 <g id="Layer_x0020_1">
  <metadata id="CorelCorpID_0Corel-Layer"/>
  <path fill="none" stroke="black" stroke-width="0.003" d="M2.28403 2.20874c-0.0870394,1.9685e-005 -0.157618,-0.0705157 -0.157642,-0.157555 -1.9685e-005,-0.0785433 0.0574173,-0.143681 0.132591,-0.155665 -0.094811,-0.0374528 -0.16189,-0.129894 -0.161921,-0.238024 -3.93701e-005,-0.141331 0.114504,-0.255941 0.255835,-0.25598 0.0496378,-1.5748e-005 0.0959843,0.0141063 0.135224,0.038563l-4.72441e-005 -0.0717047c-3.93701e-006,-0.0333937 -0.0015,-0.0665591 -0.00442126,-0.099374 -0.0046811,-0.0525709 -0.0134016,-0.105484 -0.0259252,-0.158339 -0.012378,-0.0522283 -0.0282992,-0.102969 -0.0475512,-0.15187 -0.0913346,-0.23198 -0.259059,-0.430752 -0.481717,-0.559201 -0.0187283,-0.0108071 -0.037689,-0.0210276 -0.056815,-0.0306417 -0.0489488,-0.0246024 -0.0991772,-0.0453819 -0.15024,-0.062315 -0.0501693,-0.0166378 -0.102224,-0.0297244 -0.155701,-0.039252 -0.256067,-0.0456102 -0.524248,-0.0014252 -0.756122,0.132528 -0.022189,0.012815 -0.0433386,0.0259803 -0.0634291,0.0394409 -0.0454961,0.0304921 -0.0881496,0.0638307 -0.127728,0.0996417 -0.039126,0.0354016 -0.0760866,0.0741457 -0.110634,0.11585 -0.163953,0.197898 -0.257587,0.449469 -0.257508,0.714197l7.87402e-006 0.0709882c0.0389921,-0.0240551 0.0849252,-0.0379409 0.134102,-0.0379528 0.141327,-3.93701e-005 0.255937,0.114504 0.255976,0.255835 3.14961e-005,0.10813 -0.0670039,0.20061 -0.161791,0.238114 0.0751811,0.0119409 0.132661,0.0770512 0.132681,0.155594 2.75591e-005,0.0870394 -0.0705079,0.157618 -0.157547,0.157642l-0.203551 0 -0.000153543 0.865909 0.203949 0c0.0870394,0 0.157614,0.0705157 0.157642,0.157551 1.9685e-005,0.0781929 -0.0569055,0.143106 -0.131587,0.155504 0.0942756,0.0377126 0.160886,0.129886 0.160917,0.237626 1.5748e-005,0.049626 -0.0141024,0.0959606 -0.0385433,0.135197l1.53284 1.1811e-005c-0.0244213,-0.0392008 -0.0385354,-0.0854843 -0.0385512,-0.135071 -3.14961e-005,-0.108228 0.0671339,-0.200776 0.162063,-0.238213 -0.0748504,-0.0122244 -0.131988,-0.0771772 -0.132004,-0.155488 -2.75591e-005,-0.0870354 0.0705079,-0.157854 0.157547,-0.157638l0.203551 0.000519685 0.000165354 -0.865909 -0.203961 -0.000519685zm-1.38034 -0.652579l-0.0625 -3.14961e-005c-0.0322047,-1.5748e-005 -0.0625039,-0.0122795 -0.0851654,-0.0334409 -0.00455118,-0.00424409 -0.00875591,-0.00877953 -0.0125551,-0.0135512 -0.00372835,-0.00467717 -0.00719685,-0.00976378 -0.010378,-0.0152677 -0.00629921,-0.0108819 -0.0108504,-0.0225276 -0.013622,-0.0345079 -0.00111417,-0.00480709 -0.0019252,-0.00944094 -0.0024252,-0.0138346 -0.000598425,-0.00517717 -0.000893701,-0.00989764 -0.000893701,-0.0141496l0.000244094 0c-7.87402e-006,-0.0216732 0.00555512,-0.0432756 0.016685,-0.0625039l0.000110236 6.29921e-005c0.00642913,-0.0110945 0.0141535,-0.0208031 0.0228543,-0.0289173 0.00318504,-0.00297638 0.00680709,-0.00596457 0.0108307,-0.00893701 0.00404724,-0.00299213 0.00798819,-0.0056063 0.0117795,-0.00779528 0.018563,-0.0107362 0.0400472,-0.0166811 0.0624843,-0.0166969l0.035311 7.87402e-006 0.135189 -3.93701e-005 -5.90551e-005 -0.173988 -1.9685e-005 -0.0622362 0.0622756 -1.9685e-005 0.590555 -0.000177165 0.0622402 -1.5748e-005 1.5748e-005 0.0622717 5.11811e-005 0.173969 0.170531 -7.08661e-005c0.0321929,1.5748e-005 0.0625039,0.0122756 0.0851614,0.0334409 0.00455118,0.00424409 0.00875197,0.00877559 0.0125551,0.0135512 0.00372441,0.00467717 0.00719291,0.00975984 0.010378,0.0152677 0.00629134,0.0108819 0.0108504,0.0225276 0.013622,0.0345079 0.00111024,0.00480315 0.0019252,0.00943701 0.0024252,0.0138346 0.000594488,0.00517323 0.000893701,0.0098937 0.000893701,0.0141496 0,0.0214055 -0.0056378,0.0429882 -0.0169291,0.0625039l-0.000106299 -6.29921e-005c-0.00945276,0.016315 -0.0221732,0.0299606 -0.037,0.0402244 -0.00449213,0.00311417 -0.00905512,0.00587795 -0.0136457,0.00825591 -0.00441339,0.00229134 -0.00922835,0.00441339 -0.0143858,0.00631102l2.75591e-005 7.08661e-005c-0.0132638,0.00487008 -0.0277795,0.00747244 -0.0429488,0.00748031l-0.993587 0.000267717 0 6.69291e-005z"/>
  <path fill="none" stroke="black" stroke-width="0.003" d="M2.61818 1.67289l-0.000350394 1.53626c0.0253819,-0.0157677 0.0539724,-0.0273228 0.0850039,-0.0335079 0.138598,-0.027626 0.273335,0.0623386 0.300957,0.200921 0.027622,0.138587 -0.0623268,0.273335 -0.200921,0.300961 -0.0436299,0.00869685 -0.0868819,0.00573622 -0.126528,-0.00672047l0.80222 0.966988c0.00212992,-0.117665 0.0857244,-0.222106 0.205854,-0.246051 0.138583,-0.027622 0.273311,0.0623228 0.300933,0.200909 0.00309843,0.0155433 0.00471654,0.0310394 0.00495276,0.0463386l0.807571 -0.964752c-0.0377992,0.010752 -0.0786457,0.0129291 -0.119835,0.00472047 -0.138594,-0.027626 -0.228543,-0.162374 -0.200921,-0.300961 0.027622,-0.138583 0.162358,-0.228547 0.300957,-0.200921 0.0310315,0.00618504 0.059622,0.0177402 0.0850039,0.0335079l-0.000350394 -1.53626c-0.0539488,0.0349173 -0.12102,0.0496693 -0.189016,0.0361181 -0.138591,-0.027626 -0.228535,-0.16235 -0.200913,-0.300941 0.027622,-0.138575 0.16235,-0.228531 0.300941,-0.200909 0.00885433,0.00176378 0.0175118,0.0039685 0.0259528,0.00658268l-0.799709 -0.963972c-0.00211811,0.117661 -0.0857047,0.222114 -0.205846,0.246059 -0.138571,0.027622 -0.273307,-0.0623307 -0.300925,-0.200902 -0.00309843,-0.0155472 -0.00471654,-0.0310433 -0.00495276,-0.0463465l-0.806602 0.963591c0.00829921,-0.00255512 0.016811,-0.00470866 0.0255118,-0.00644488 0.138591,-0.027626 0.273315,0.0623346 0.300941,0.200909 0.027622,0.138591 -0.0623228,0.273315 -0.200909,0.300941 -0.068,0.0135551 -0.135071,-0.00120079 -0.18902,-0.0361181zm1.9408 0.161244c0.010622,-0.0532992 0.0624449,-0.0878976 0.11574,-0.0772717 0.0533031,0.010622 0.0878976,0.0624449 0.0772717,0.115744 -0.010622,0.0533031 -0.062437,0.0878937 -0.11574,0.0772717 -0.0532992,-0.010626 -0.0878976,-0.0624409 -0.0772717,-0.115744zm0.00260236 1.1811c0.010622,-0.0533071 0.0624488,-0.0878976 0.115744,-0.0772756 0.0532992,0.010622 0.0879016,0.0624449 0.0772756,0.115748 -0.010622,0.0532992 -0.0624488,0.0878976 -0.115748,0.0772756 -0.0532992,-0.010622 -0.0878976,-0.0624488 -0.0772717,-0.115748zm-1.75539 -1.2598c0.0532992,-0.0106417 0.105118,0.0239724 0.11574,0.0772638 0.010626,0.0533071 -0.0239724,0.105114 -0.0772717,0.115728 -0.053311,0.0106417 -0.105122,-0.0239528 -0.115736,-0.0772598 -0.0106417,-0.0533031 0.0239606,-0.105122 0.0772677,-0.115732zm-0.00261417 1.18109c0.0532992,-0.010622 0.105126,0.0239685 0.115744,0.0772756 0.0106378,0.0532913 -0.0239764,0.105134 -0.0772638,0.115756 -0.053311,0.0106142 -0.10513,-0.0239685 -0.115752,-0.0772756 -0.0106181,-0.053315 0.0239646,-0.105134 0.0772717,-0.115756z"/>
  <path fill="none" stroke="black" stroke-width="0.003" d="M4.72817 0.250008c0.0849094,0.435717 0.202512,1.03759 0.315453,1.60698l0.00485827 0 0.0415039 -0.0588386c0.0210669,-0.0074685 0.0433268,-0.0105 0.0653898,-0.00909843 0.00414961,0.000259843 0.00912598,0.000846457 0.0149213,0.00175197 0.00612992,0.000952756 0.0110748,0.00190945 0.0148228,0.00285039 0.0042126,0.00105906 0.00938189,0.00268898 0.0155157,0.00489764l0.0412598 0.0585945 -0.000425197 0.19278 0 0.0777087 0.987693 0.00217717 0 -0.0774331 0.00042126 -0.19278 0.0415039 -0.0588386c0.0214016,-0.00759843 0.0439528,-0.0106181 0.0662283,-0.00907087 0.00470472,0.000322835 0.00978346,0.000937008 0.0151929,0.00181496 0.0047126,0.00076378 0.00967323,0.0018189 0.0148504,0.00316142 0.00450787,0.00116929 0.00931496,0.00267323 0.014378,0.00449213l0.0412598 0.0585945 0.00503543 0c0.10002,-0.49398 0.229232,-1.14028 0.322768,-1.60879l-2.02263 -0.000956693zm1.50481 0.183488c-0.010626,-0.0532913 0.0239685,-0.105106 0.0772638,-0.11574 0.0532953,-0.0106299 0.105126,0.0239843 0.11574,0.0772598 0.010622,0.053315 -0.0239646,0.105126 -0.0772795,0.115756 -0.0532913,0.010622 -0.105102,-0.0239724 -0.115724,-0.0772756zm-1.06536 0.0746772c-0.0533071,0.0106181 -0.105118,-0.0239921 -0.115748,-0.0772795 -0.0106299,-0.0533031 0.0239685,-0.105126 0.0772756,-0.11574 0.0532992,-0.0106299 0.105126,0.0239685 0.115748,0.0772717 0.0106339,0.0533071 -0.0239803,0.105114 -0.0772756,0.115748zm0.034315 0.699835l0.0412598 0.0585945 -0.00042126 0.192772 -0.0415039 0.0588386c-0.0210512,0.00748031 -0.0433031,0.0105197 -0.0653819,0.00911417 -0.00414961,-0.000259843 -0.00912992,-0.000846457 -0.0149213,-0.00175197 -0.00615748,-0.000964567 -0.0111102,-0.00192126 -0.0148268,-0.00285433 -0.0042126,-0.00105906 -0.00938189,-0.00269291 -0.0155118,-0.00489764l-0.0412598 -0.0585945 0.000425197 -0.192787 0.0415039 -0.0588386c0.0217165,-0.00770472 0.044626,-0.0107165 0.0672362,-0.00902362 0.00464961,0.000350394 0.00964961,0.000972441 0.0149724,0.00187008 0.00495276,0.000834646 0.00991339,0.00190945 0.0148661,0.00322047 0.00377165,0.001 0.00830709,0.00245276 0.013563,0.00433858zm1.02854 0.253823l0.00042126 -0.192776 0.0415039 -0.0588386c0.0214016,-0.00759449 0.0439528,-0.0106142 0.0662323,-0.00907087 0.00468898,0.000322835 0.00976378,0.000929134 0.015189,0.00181102 0.00471654,0.00076378 0.00967323,0.00182283 0.0148465,0.00316142 0.00448425,0.00115748 0.0092874,0.00265748 0.014374,0.00448425l0.0412598 0.0585945 -0.000417323 0.192787 -0.0415039 0.0588386c-0.0217283,0.00770472 -0.0446417,0.0107165 -0.0672441,0.009 -0.00485827,-0.000366142 -0.00985433,-0.000980315 -0.0149724,-0.00184252 -0.00493701,-0.000822835 -0.00989764,-0.00190157 -0.0148661,-0.00321654 -0.00377165,-0.001 -0.00830709,-0.00245276 -0.013563,-0.00433858l-0.0412598 -0.0585945z"/>
  <path fill="none" stroke="black" stroke-width="0.003" d="M6.22917 2.72981l-0.987697 -0.00217717 0 0.077437 -0.00042126 0.192776 -0.0415039 0.0588386c-0.0210591,0.00747244 -0.043315,0.0105118 -0.0653819,0.0091063 -0.00415748,-0.000259843 -0.00913386,-0.000846457 -0.0149213,-0.00175197 -0.00612992,-0.000952756 -0.0110748,-0.00190945 -0.0148228,-0.00285039 -0.0042126,-0.00105906 -0.00938583,-0.00269291 -0.0155157,-0.00489764l-0.0412598 -0.0585945 -0.00501969 0c-0.0968622,0.478657 -0.227677,1.13284 -0.322453,1.60739l2.02165 -0.000956693c-0.0848858,-0.435579 -0.202154,-1.03571 -0.314807,-1.60368l-0.00486614 0 -0.0415039 0.0588386c-0.0210591,0.00747638 -0.043311,0.0105157 -0.0653819,0.00911024 -0.00414961,-0.000259843 -0.00912598,-0.000846457 -0.0149213,-0.00175197 -0.00615354,-0.000964567 -0.0111102,-0.00192126 -0.0148268,-0.00285433 -0.00420472,-0.00105906 -0.00937795,-0.00268898 -0.0155157,-0.00489764l-0.0412598 -0.0585945 0.000429134 -0.192783 0 -0.0777047zm-0.0102913 1.69178c0.010626,-0.0533031 0.062437,-0.0878937 0.115732,-0.0772717 0.0533031,0.010626 0.0878976,0.062437 0.0772795,0.11574 -0.010626,0.0532953 -0.0624449,0.0878937 -0.115744,0.0772717 -0.0532992,-0.010626 -0.0878898,-0.0624449 -0.0772677,-0.11574zm0.00856299 -0.830748l0.00042126 -0.192783 0.0415039 -0.0588386c0.0210709,-0.00747244 0.0433268,-0.0105079 0.0653937,-0.0091063 0.00414961,0.000259843 0.00912992,0.000846457 0.0149213,0.00175197 0.00615354,0.000964567 0.0111142,0.00192126 0.0148228,0.00285433 0.0042126,0.00105906 0.00938189,0.00269291 0.0155118,0.00489764l0.0412598 0.0585945 -0.000425197 0.192791 -0.0415039 0.0588386c-0.0210669,0.0074685 -0.0433228,0.0105 -0.0653858,0.00909843 -0.00414961,-0.000259843 -0.00912598,-0.000846457 -0.0149213,-0.00175197 -0.00615354,-0.000964567 -0.0111102,-0.00192126 -0.0148228,-0.00285433 -0.0042126,-0.00105906 -0.00938189,-0.00268898 -0.0155157,-0.00489764l-0.0412598 -0.0585945zm-1.07393 0.756079c0.0533031,0.0106142 0.0879016,0.0624409 0.0772756,0.11574 -0.010622,0.0533031 -0.0624488,0.0878976 -0.115748,0.0772795 -0.0533031,-0.010626 -0.0878976,-0.0624488 -0.0772756,-0.115748 0.010626,-0.0533031 0.0624449,-0.0878976 0.115748,-0.0772717zm0.0866614 -0.951311l-0.00042126 0.192783 -0.0415039 0.0588386c-0.0196811,0.00697244 -0.0405591,0.0100472 -0.0614764,0.00922835 -0.00485433,-0.000192913 -0.00980315,-0.00061811 -0.0148031,-0.00126772 -0.00464961,-0.000602362 -0.00948819,-0.0014685 -0.0144843,-0.00258268 -0.0067126,-0.00149606 -0.0133622,-0.00342913 -0.0198937,-0.00577559l-0.0412598 -0.0585945 0.000433071 -0.192783 0.0415039 -0.0588386c0.0213898,-0.00759055 0.043937,-0.0106102 0.0662244,-0.00906693l0.000244094 0c0.00441339,0.000311024 0.0093937,0.000913386 0.0149488,0.00181496 0.00470866,0.00076378 0.00966929,0.0018189 0.0148504,0.00316142l-1.5748e-005 6.29921e-005c0.005,0.00129921 0.00979921,0.00277559 0.0143937,0.0044252l0.0412598 0.0585945z"/>
  <g id="_163979280">
   <path id="_163980048" fill="none" fill-rule="nonzero" stroke="red" stroke-width="0.003" d="M3.57573 2.02848c0,-0.00418898 0.000338583,-0.0080748 0.00101575,-0.0116575 0.000704724,-0.00370079 0.00176772,-0.00702362 0.00319685,-0.00995669l7.87402e-006 -1.1811e-005 -3.93701e-006 0c0.000358268,-0.000732283 0.000783465,-0.0015315 0.00128346,-0.00239764 0.000543307,-0.000940945 0.00101181,-0.00170472 0.00140945,-0.00229528 0.00256299,-0.00379528 0.00577953,-0.00706693 0.00965354,-0.00979921l2.3622e-005 0 0.248933 -0.174496 0.000212598 -0.000165354c0.00188189,-0.00119685 0.00387402,-0.00211811 0.00598031,-0.00275591 0.00214961,-0.000653543 0.00429921,-0.000984252 0.00643701,-0.000984252 0.0020315,0 0.00405512,0.000314961 0.00606299,0.000933071 0.00193307,0.000598425 0.00379921,0.00148425 0.00560236,0.00265748 0.00168504,0.00109449 0.00324803,0.00235827 0.00467323,0.00378346l1.1811e-005 -7.87402e-006c0.00138583,0.00138189 0.00266929,0.00296457 0.00385433,0.00474016l9.05512e-005 0.000137795 1.1811e-005 1.9685e-005 -3.93701e-006 3.93701e-006c0.000314961,0.000472441 0.000594488,0.000897638 0.000811024,0.00126378 0.000169291,0.000275591 0.000437008,0.000748031 0.000818898,0.00144882l1.1811e-005 -3.93701e-006c0.00136614,0.00248425 0.00249606,0.00517717 0.00338976,0.00808268l1.1811e-005 4.33071e-005c0.00015748,0.000519685 0.000314961,0.00108268 0.000476378,0.00168898l7.87402e-006 0c0.000181102,0.000688976 0.000322835,0.00125984 0.00042126,0.0017126l-1.5748e-005 3.93701e-006c0.000653543,0.0029685 0.000980315,0.00587795 0.000980315,0.0087126l-2.3622e-005 0c0,0.00222047 -0.000181102,0.00434646 -0.000547244,0.00635827 -0.000370079,0.00207874 -0.000933071,0.00403543 -0.0016811,0.00587402l3.93701e-006 3.93701e-006 -7.87402e-006 1.5748e-005 -7.87402e-006 7.87402e-006 -7.87402e-006 2.3622e-005 -7.87402e-006 -3.93701e-006c-0.000248031,0.000602362 -0.000503937,0.00116142 -0.000767717,0.00167323l0 1.9685e-005c-0.000287402,0.000566929 -0.000586614,0.00109843 -0.000889764,0.00158268 -0.00162992,0.00261024 -0.00381496,0.00491732 -0.00655512,0.00690945l-0.000141732 9.44882e-005 -0.0662087 0.0454213 0 0.216122 0.0660709 0.0426378 -7.87402e-006 1.1811e-005 0 0c0.00065748,0.000417323 0.00118504,0.000779528 0.00157874,0.0010748 0.000519685,0.000393701 0.00101181,0.00080315 0.00147638,0.00122047 0.00245669,0.00221654 0.00429134,0.00487008 0.0055,0.00795669 0.000728346,0.00186614 0.00128346,0.0038189 0.00165354,0.00585433 0.00038189,0.00206299 0.000570866,0.0041063 0.000570866,0.00613386l0 3.93701e-005 -2.3622e-005 0c-3.93701e-006,0.00192913 -0.000161417,0.00387402 -0.000476378,0.00582283 -2.75591e-005,0.000188976 -9.05512e-005,0.000527559 -0.000161417,0.000933071l0 2.3622e-005c-0.000307087,0.00164173 -0.000712598,0.00329134 -0.00122047,0.00494488 -0.00061811,0.002 -0.00138583,0.00394094 -0.00230315,0.0058189 -0.000929134,0.0018937 -0.00197638,0.00366142 -0.00314567,0.00529528 -0.00119685,0.00167717 -0.00247638,0.00319685 -0.00383465,0.00455512l-2.3622e-005 2.3622e-005c-0.00139764,0.00139764 -0.00287795,0.00263386 -0.00444488,0.00370472 -0.00179528,0.00122441 -0.00369291,0.00214567 -0.00569291,0.00274803l-7.87402e-006 -2.3622e-005c-0.00205118,0.000622047 -0.00414961,0.000933071 -0.00627953,0.000933071l-1.9685e-005 0 0 -2.3622e-005c-0.00194882,-3.93701e-006 -0.00395276,-0.000334646 -0.006,-0.000984252 -0.000759843,-0.000244094 -0.0014252,-0.000480315 -0.00197638,-0.000708661l3.93701e-006 -7.87402e-006c-0.00127953,-0.000531496 -0.00255512,-0.00116142 -0.00381496,-0.00189764l-0.000283465 -0.000188976 -0.248866 -0.164043 -1.1811e-005 -7.87402e-006 -4.72441e-005 -2.3622e-005c-0.000799213,-0.000519685 -0.00153937,-0.00103937 -0.00221654,-0.00155512 -0.000748031,-0.000570866 -0.00144882,-0.00114961 -0.00209055,-0.00172441 -0.00341732,-0.00306693 -0.00616535,-0.00679921 -0.00824016,-0.0111811 -0.00141732,-0.00298819 -0.00247638,-0.00638189 -0.00317323,-0.0101811 -0.000677165,-0.00369291 -0.00101575,-0.00769291 -0.00101575,-0.0119843zm0.156591 0.718039l-0.0523976 -0.0994567 0 0 -2.3622e-005 -4.33071e-005 0 -2.3622e-005c-0.000283465,-0.000527559 -0.000503937,-0.000964567 -0.000653543,-0.00128346 -0.000133858,-0.000291339 -0.000326772,-0.000744094 -0.000555118,-0.00132283 -0.000905512,-0.00227953 -0.00151575,-0.00470079 -0.00182677,-0.00725197 -0.000177165,-0.00148819 -0.000318898,-0.00341732 -0.00042126,-0.0057874 -0.000102362,-0.0024685 -0.000153543,-0.00496063 -0.000153543,-0.00746457l0 -3.14961e-005 2.3622e-005 0c3.93701e-006,-0.00227559 0.000267717,-0.00440945 0.000787402,-0.00640157 0.000125984,-0.000484252 0.000216535,-0.000818898 0.000279528,-0.00101181 0.000527559,-0.00169291 0.00126378,-0.00329528 0.00220079,-0.00481102l0 -1.9685e-005c0.00137008,-0.00220472 0.00316535,-0.00388583 0.00538583,-0.0050315 0.0020748,-0.0010748 0.00444488,-0.00161417 0.00709843,-0.00161417l0 -2.3622e-005c0.00190551,0 0.00368898,0.000299213 0.00534252,0.000901575 0.00182677,0.000661417 0.00340157,0.00165748 0.0047126,0.0029685 0.000889764,0.000889764 0.00177165,0.00195669 0.0026378,0.00320079 0.00076378,0.00108268 0.00146457,0.00227559 0.00211417,0.00356299l3.93701e-006 -3.93701e-006 0.0503307 0.0958937 0.0494331 -0.0976693 7.87402e-006 3.93701e-006 2.3622e-005 -6.69291e-005c0.00046063,-0.000893701 0.000972441,-0.00175591 0.00152362,-0.00257874 0.000598425,-0.000893701 0.00118898,-0.00167323 0.00176378,-0.00232283 0.00352362,-0.004 0.00790157,-0.00600394 0.013122,-0.00600394 0.00630315,0 0.010811,0.00262992 0.0135118,0.00788189 0.00108268,0.00210236 0.00187008,0.00461024 0.00237008,0.00751181 0.000456693,0.00267717 0.000688976,0.00570866 0.000688976,0.00909843 0,0.00614173 -0.000511811,0.0111102 -0.00153543,0.0148858 -0.001,0.00370079 -0.0020748,0.00650394 -0.00322047,0.00840945l-0.0507441 0.0959291 0.0370787 0 0 -2.3622e-005 2.75591e-005 0 0 2.3622e-005c0.00335039,3.93701e-006 0.00623228,0.000515748 0.00864173,0.0015315 0.000586614,0.000244094 0.00100394,0.000437008 0.00127559,0.000582677l2.3622e-005 2.3622e-005c0.00229921,0.00123622 0.00407087,0.00294882 0.00529921,0.0051378 0.0011063,0.00196457 0.00192126,0.00433858 0.00244094,0.00711417 0.000472441,0.00252756 0.000712598,0.0053622 0.000712598,0.00849606 0,0.0031378 -0.000240157,0.00596063 -0.000712598,0.00846457 -0.000523622,0.00277165 -0.00135433,0.00513386 -0.00248819,0.00708268 -0.00148031,0.00255118 -0.00369291,0.00442913 -0.00662992,0.00562992 -0.00239764,0.000976378 -0.00526378,0.0014685 -0.00859055,0.0014685l-0.168787 0c-0.00739764,0 -0.0124724,-0.00236614 -0.0152165,-0.00709843 -0.00113386,-0.00194882 -0.00196457,-0.00431102 -0.00248819,-0.00708268 -0.000472441,-0.00250394 -0.000712598,-0.00532677 -0.000712598,-0.00846457 0,-0.00312992 0.000240157,-0.00596457 0.000712598,-0.00849606 0.000519685,-0.00277559 0.00133465,-0.00514961 0.00244094,-0.00711417l4.72441e-005 -7.08661e-005 7.87402e-006 -1.1811e-005 7.87402e-006 3.93701e-006c0.000425197,-0.000744094 0.000901575,-0.00142126 0.00141732,-0.00201969 0.000562992,-0.000649606 0.00116535,-0.00122835 0.00179921,-0.00172835 0.00294488,-0.00231496 0.00694094,-0.00347244 0.0119843,-0.00347244l0.079878 0zm0.0468425 -0.192295l0.00746457 0 1.1811e-005 0 0 2.3622e-005c0.0013189,0 0.00258661,-0.000448819 0.00379134,-0.00133858 0.000480315,-0.000354331 0.000964567,-0.000787402 0.00145276,-0.00129528 0.00107874,-0.00112205 0.00212598,-0.00258268 0.00314173,-0.00437402l-7.87402e-006 -3.93701e-006 7.87402e-006 -1.9685e-005 0 -3.93701e-006 1.5748e-005 -2.3622e-005 0 0c0.000413386,-0.000732283 0.000799213,-0.00152756 0.00114567,-0.00237402 0.000417323,-0.000996063 0.000771654,-0.00198819 0.00106693,-0.00296457 0.00176772,-0.00582677 0.00265354,-0.0137913 0.00265354,-0.0238858l2.3622e-005 0 0 -0.030378c0,-0.00648425 0.00217323,-0.0108543 0.00651575,-0.0131142 0.00164173,-0.000854331 0.0036063,-0.00148031 0.00588583,-0.00187402 0.00201181,-0.000350394 0.00427559,-0.000523622 0.0067874,-0.000523622l5.11811e-005 0 0 2.3622e-005c0.00259055,3.93701e-006 0.00485433,0.000173228 0.0067874,0.000503937 0.000751969,0.000129921 0.00143307,0.000271654 0.00203543,0.000425197 0.00134646,0.00034252 0.00262205,0.000814961 0.00382677,0.00141732l7.87402e-006 -1.9685e-005c0.00243701,0.00122047 0.00423622,0.00314173 0.00538976,0.00576378 0.000901575,0.00203937 0.00135039,0.00450787 0.00135039,0.00739764l2.3622e-005 0 0 0.0314331 -2.3622e-005 0c0,0.0260709 -0.00411811,0.0458071 -0.0123583,0.0592087 -0.00883071,0.0143661 -0.0220236,0.0215472 -0.0395827,0.0215472l-0.0573189 0 -1.1811e-005 0 0 -2.3622e-005c-0.0175551,-3.93701e-006 -0.030748,-0.0071811 -0.0395709,-0.0215236 -0.00823228,-0.0133937 -0.0123543,-0.0331142 -0.0123583,-0.0591614l-2.3622e-005 0 0 -4.72441e-005 2.3622e-005 0 0 -0.0610157 -2.3622e-005 0 0 -4.72441e-005 2.3622e-005 0c3.93701e-006,-0.0136457 0.000984252,-0.0253898 0.00293701,-0.0352244 0.000307087,-0.00153937 0.000665354,-0.0031378 0.00107087,-0.00479134 0.002,-0.00811024 0.00477165,-0.0149094 0.00831496,-0.0203819l1.9685e-005 -7.08661e-005 1.1811e-005 -1.5748e-005 1.5748e-005 1.1811e-005c0.00216535,-0.00333858 0.00461417,-0.00625984 0.00733858,-0.00876378 0.0027874,-0.00256299 0.00587795,-0.00470472 0.00926378,-0.0064252 0.00662992,-0.00336614 0.0142874,-0.00504724 0.0229685,-0.00504724l0 2.3622e-005 0.030378 0 0 -2.3622e-005c0.00674016,0 0.0116732,0.00155906 0.0147992,0.00467717l7.87402e-006 -1.1811e-005 1.5748e-005 1.1811e-005 0 2.3622e-005c0.000602362,0.000610236 0.00112992,0.00126772 0.0015748,0.0019685l-1.5748e-005 7.87402e-006c0.000429134,0.000681102 0.000795276,0.00137795 0.00110236,0.00209449l0 2.3622e-005c0.00132677,0.00312992 0.00199213,0.00748031 0.00199213,0.0130551l0 0.155126zm-0.0381339 0l0 -0.131425 -0.0117205 0 -1.1811e-005 0 0 -2.3622e-005c-0.00180315,3.93701e-006 -0.0033937,0.000480315 -0.00475591,0.0014252 -0.000507874,0.000354331 -0.000972441,0.000748031 -0.00138976,0.00117323 -0.001,0.0010315 -0.00192126,0.00237402 -0.00275984,0.00402362l-7.87402e-006 -3.93701e-006 -3.93701e-006 7.87402e-006 0 2.3622e-005c-0.000350394,0.000692913 -0.000692913,0.00149213 -0.00102362,0.00238976 -0.00034252,0.000925197 -0.00065748,0.0019252 -0.000944882,0.003 -0.00158661,0.00590945 -0.00238189,0.0139921 -0.00238189,0.024248l0 0.0589016c0,0.0137756 0.00160236,0.0235551 0.00479921,0.0293425 0.00141732,0.00256693 0.00291732,0.00442913 0.00449606,0.00558268 0.00121654,0.000885827 0.00254724,0.00133465 0.00398425,0.00133465l0.0117205 0zm-0.0940157 0.541504c-0.00204331,-0.00172047 -0.00378346,-0.00352362 -0.00520866,-0.0053937l0 -2.3622e-005c-0.00151181,-0.00199213 -0.00271654,-0.00407874 -0.00361024,-0.00625984l-1.5748e-005 -3.14961e-005 -2.3622e-005 -2.3622e-005c-0.000385827,-0.000948819 -0.000755906,-0.00202756 -0.00110236,-0.00322047 -0.000322835,-0.0011063 -0.000586614,-0.00223228 -0.000795276,-0.00336614 -0.000429134,-0.00234252 -0.000645669,-0.00471654 -0.000645669,-0.00712205 0,-0.00805906 0.00202756,-0.0143031 0.00608268,-0.0187165 0.00417323,-0.00453937 0.0101339,-0.00681102 0.0178819,-0.00681102l0 -2.3622e-005 0.161654 0c0.00337795,0 0.00630315,0.000559055 0.00877953,0.00166142 0.00293701,0.00131496 0.00512205,0.00333071 0.00655906,0.00604331 0.00107087,0.00201969 0.00185827,0.00444882 0.00237008,0.00728346 0.000472441,0.0026378 0.000712598,0.00554331 0.000712598,0.00871654 0,0.00316929 -0.000240157,0.0060748 -0.000712598,0.0087126 -0.000507874,0.0028189 -0.00129134,0.00523622 -0.00235039,0.00724803l-2.75591e-005 7.08661e-005c-0.000377953,0.000716535 -0.000858268,0.00142913 -0.0014252,0.00212992 -0.000547244,0.000673228 -0.00114173,0.00127953 -0.00177559,0.00181102 -0.00297244,0.00248425 -0.00701969,0.00372835 -0.0121299,0.00372835l-0.10852 0 0.11472 0.0947677 4.72441e-005 4.72441e-005c0.00204724,0.00174016 0.0038189,0.00351181 0.00530709,0.00530709 0.00157087,0.0018937 0.00285827,0.00384252 0.00385433,0.00583858l-1.9685e-005 7.87402e-006c0.0010315,0.00206299 0.00179528,0.00431496 0.00229528,0.00675197 0.000488189,0.00239764 0.00073622,0.00490945 0.00073622,0.00753543 0,0.00284646 -0.000240157,0.00555118 -0.000712598,0.00811024 -0.000492126,0.00265354 -0.00123622,0.00505906 -0.00222835,0.00720866 -0.001,0.00216535 -0.00229921,0.00422835 -0.00390157,0.00618504 -0.00150787,0.00184646 -0.00330709,0.0036063 -0.0053937,0.00528346l1.5748e-005 1.9685e-005 -0.114752 0.0950354 0.108551 0c0.00337795,0 0.00630315,0.000555118 0.00877953,0.00166142 0.00293701,0.00131102 0.00512205,0.00333071 0.00655906,0.00603937 0.00107087,0.00201969 0.00185827,0.00445276 0.00237008,0.00728346 0.000472441,0.0026378 0.000712598,0.00554331 0.000712598,0.00871654 0,0.00311024 -0.000240157,0.00595669 -0.000712598,0.00853937 -0.000507874,0.00275984 -0.00129134,0.00514567 -0.00235039,0.00715748l-2.75591e-005 7.08661e-005c-0.000377953,0.000720472 -0.000858268,0.00142913 -0.0014252,0.00212992 -0.000547244,0.000673228 -0.00114173,0.00127953 -0.00177559,0.00181102 -0.00297244,0.00248425 -0.00701969,0.00372835 -0.0121299,0.00372835l-0.161654 0 0 -2.3622e-005c-0.00773228,0 -0.013685,-0.00224016 -0.0178583,-0.00672047 -0.00407087,-0.00437008 -0.0061063,-0.0105551 -0.0061063,-0.0185433 0,-0.00514567 0.000940945,-0.00985039 0.00282677,-0.0141024 0.00190551,-0.00429921 0.00474803,-0.0080748 0.00852756,-0.011315l7.08661e-005 -7.08661e-005 0.141051 -0.116906 -0.141075 -0.117945 0 -2.3622e-005zm0.191984 -0.140173c-2.3622e-005,0.0128898 -0.00105512,0.0242362 -0.00309843,0.0340236 -0.000338583,0.00161417 -0.000700787,0.00318504 -0.00109449,0.0047126 -0.00201181,0.0078622 -0.00475197,0.0146142 -0.00822047,0.020252l-7.87402e-006 1.5748e-005 -3.93701e-006 7.87402e-006c-0.00124803,0.00202756 -0.00258268,0.00391339 -0.004,0.00565748 -0.00141732,0.00174016 -0.00292913,0.00334252 -0.00452362,0.00480709l0 0c-0.00820079,0.00751969 -0.0186732,0.0112795 -0.0314213,0.0112795l-0.000429134 0 0 -2.75591e-005 -0.00335039 0 0 2.75591e-005 -0.000433071 0 -1.9685e-005 0 0 -3.93701e-006c-0.00884252,0 -0.0165984,-0.0018189 -0.0232559,-0.00544488 -0.00108661,-0.000590551 -0.00214567,-0.00122835 -0.00316929,-0.00191339 -0.00527165,-0.0035315 -0.00977953,-0.00833071 -0.0135079,-0.0143937l0 -7.87402e-006 -1.5748e-005 -1.9685e-005c-0.00116142,-0.0018937 -0.00224409,-0.00391339 -0.00323622,-0.00604331l3.93701e-006 0c-0.001,-0.0021378 -0.00191732,-0.00440157 -0.00274803,-0.0067874 -0.00425197,-0.0121496 -0.0063937,-0.0275354 -0.0064252,-0.0461417l-2.3622e-005 0 0 -0.000433071 2.3622e-005 -0.101949 -0.0079252 0 -1.5748e-005 0 0 -3.93701e-006c-3.54331e-005,3.93701e-006 -8.26772e-005,1.9685e-005 -0.000141732,3.93701e-005 -8.26772e-005,3.14961e-005 -0.000185039,7.87402e-005 -0.000295276,0.000137795l0 0c-0.000566929,0.000311024 -0.00124409,0.000874016 -0.0013937,0.00121654l-0.00011811 0.000255906 -3.93701e-006 0 -4.33071e-005 9.84252e-005 0 0 -0.000133858 0.000326772 0 0c-0.000224409,0.000555118 -0.000429134,0.00111417 -0.000610236,0.0016811l-1.1811e-005 6.29921e-005 -3.93701e-006 1.9685e-005 -3.93701e-006 0 -0.000110236 0.000358268 -0.000114173 0.000385827c-0.000188976,0.000653543 -0.00038189,0.00140551 -0.00057874,0.00224803l-1.1811e-005 5.90551e-005c-0.00019685,0.000838583 -0.000374016,0.0017126 -0.00053937,0.00261417 -0.000161417,0.000905512 -0.000314961,0.00186614 -0.000456693,0.00287795 -0.000708661,0.00513386 -0.00106693,0.0113976 -0.00106693,0.0187795l0 0.0248307 0 0.000433071 -3.14961e-005 0c-4.33071e-005,0.00306693 -0.000582677,0.00567717 -0.00161811,0.00782283l0 0c-0.000173228,0.000366142 -0.000366142,0.000716535 -0.000574803,0.00106299l3.93701e-006 0c-0.000984252,0.00162598 -0.00229528,0.00294094 -0.00393307,0.00394488l7.87402e-006 1.1811e-005 -0.000397638 0.000228346 -2.3622e-005 1.5748e-005 -7.08661e-005 3.14961e-005 -7.87402e-006 3.93701e-006 -0.000232283 0.000114173 -3.54331e-005 1.9685e-005 -3.93701e-006 3.93701e-006 -0.00023622 0.000125984 -3.93701e-006 0c-0.000405512,0.000212598 -0.000779528,0.000389764 -0.0011063,0.000527559l0 0 -1.5748e-005 7.87402e-006 -3.93701e-006 3.93701e-006 -0.000200787 8.26772e-005 -7.87402e-006 0 -0.000212598 8.26772e-005 -3.93701e-006 0c-0.000370079,0.000141732 -0.000791339,0.000287402 -0.00125197,0.000433071l0 0 -4.33071e-005 1.1811e-005 -3.93701e-006 0c-0.000377953,0.00011811 -0.000767717,0.000228346 -0.00115748,0.000326772 -0.000405512,9.84252e-005 -0.000814961,0.000192913 -0.00122441,0.000275591 -0.00212992,0.000425197 -0.00455118,0.000637795 -0.00725197,0.000637795l-4.33071e-005 0 0 -3.93701e-006c-0.0028189,0 -0.00533465,-0.000224409 -0.00753937,-0.000665354 -0.000366142,-7.48031e-005 -0.000720472,-0.000153543 -0.00105906,-0.00023622 -0.00177559,-0.000433071 -0.00333465,-0.00102756 -0.00466929,-0.00177559l-7.87402e-006 -3.93701e-006 -7.87402e-006 -3.93701e-006c-0.000334646,-0.000185039 -0.00065748,-0.000389764 -0.000964567,-0.000602362 -0.00030315,-0.000208661 -0.000602362,-0.000437008 -0.000889764,-0.000685039l0 3.93701e-006c-0.00145669,-0.00123622 -0.00259449,-0.00282283 -0.00339764,-0.00475197l0 -3.93701e-006 -1.1811e-005 -3.14961e-005c-0.000122047,-0.000299213 -0.00023622,-0.000602362 -0.000338583,-0.000905512 -0.000106299,-0.000318898 -0.000204724,-0.000637795 -0.000287402,-0.000952756 -0.000413386,-0.00153543 -0.000637795,-0.00325984 -0.000665354,-0.00515748l-2.75591e-005 0 0 -0.000433071 0 -0.0258858 0 -2.3622e-005 0 -0.000433071 2.75591e-005 0c1.5748e-005,-0.00854724 0.000476378,-0.0164134 0.00138189,-0.0235984 0.000299213,-0.00238583 0.000649606,-0.00468898 0.00104331,-0.00690551 0.00203937,-0.0114646 0.00537402,-0.0209606 0.01,-0.0284803l3.93701e-006 -3.93701e-006 3.93701e-006 -7.87402e-006c0.000397638,-0.000649606 0.000818898,-0.00129921 0.00125591,-0.00194488 0.000429134,-0.000633858 0.000874016,-0.00125591 0.0013189,-0.00185827 0.0023189,-0.00311024 0.00491339,-0.00583858 0.00778346,-0.00817323l3.93701e-006 0 1.1811e-005 -1.1811e-005 0 0c0.00111811,-0.000909449 0.00227953,-0.00175591 0.00347244,-0.00253937 0.00119291,-0.000783465 0.00242913,-0.00150394 0.00369291,-0.00215748 0.00650787,-0.00336614 0.0139764,-0.00505118 0.0223976,-0.00505118l0.0573189 0c0.0348228,0 0.0522795,0.0269173 0.0523701,0.0807559l2.75591e-005 0 0 0.000433071 0 0.0718465 0 0.000433071 -2.75591e-005 0zm-0.0395236 -0.0712244l0 -5.51181e-005 0 -0.000429134 2.3622e-005 0c-7.87402e-006,-0.00262992 -7.87402e-005,-0.00512992 -0.000216535,-0.00750394l0 0c-3.54331e-005,-0.000582677 -7.87402e-005,-0.0011811 -0.000122047,-0.00178346 -0.000224409,-0.003 -0.000559055,-0.00576772 -0.00100787,-0.00829134l-3.93701e-006 -3.93701e-005 -6.29921e-005 -0.000338583 -5.90551e-005 -0.000326772c-0.000102362,-0.000551181 -0.000212598,-0.00108268 -0.000322835,-0.00158661l3.93701e-006 0 -7.87402e-006 -2.75591e-005 0 0c-0.000110236,-0.000507874 -0.000228346,-0.001 -0.000346457,-0.00147244 -0.00011811,-0.000472441 -0.000244094,-0.000937008 -0.000374016,-0.00138976 -0.000653543,-0.00229134 -0.00142913,-0.00422441 -0.0023189,-0.00579921l-7.87402e-006 -1.5748e-005 -7.87402e-006 -1.5748e-005c-0.00019685,-0.000350394 -0.000405512,-0.00069685 -0.000614173,-0.00103937 -0.000200787,-0.000318898 -0.000405512,-0.000637795 -0.000622047,-0.000948819 -0.00105512,-0.00154331 -0.0021378,-0.00272441 -0.00323622,-0.00353937l-0.000334646 -0.000248031 -0.000145669 -9.05512e-005c-0.00015748,-9.44882e-005 -0.000318898,-0.000185039 -0.000480315,-0.000267717 -0.000814961,-0.000409449 -0.00167717,-0.00061811 -0.00258268,-0.00061811l-0.0181181 0 0 0.105559 0 5.51181e-005 0 0.000433071 -2.3622e-005 0c7.87402e-006,0.00263386 8.26772e-005,0.00514961 0.000216535,0.00752362 3.14961e-005,0.000586614 7.08661e-005,0.0011811 0.00011811,0.00179134 0.000216535,0.003 0.000543307,0.00576378 0.000980315,0.0082874l7.87402e-006 3.93701e-005 5.90551e-005 0.00034252 0 0 5.90551e-005 0.000334646c9.84252e-005,0.000547244 0.000204724,0.0010748 0.000311024,0.0015748l7.87402e-006 3.14961e-005c0.000106299,0.000503937 0.000220472,0.001 0.000334646,0.00146457l0 3.93701e-006c0.000114173,0.000456693 0.00023622,0.000925197 0.000366142,0.00138583 0.000645669,0.00229528 0.00141339,0.00425197 0.00230315,0.00585827l7.87402e-006 1.5748e-005 3.93701e-006 7.87402e-006 3.93701e-006 7.87402e-006 0.000314961 0.000555118 0.000318898 0.000535433c0.000531496,0.000870079 0.00107087,0.00163386 0.0016063,0.0022874l1.1811e-005 1.1811e-005 3.93701e-006 7.87402e-006 0.000295276 0.00034252 -3.93701e-006 3.93701e-006 0.000287402 0.000311024 0 0c0.000488189,0.000523622 0.001,0.000980315 0.00152756,0.00136614l0.000326772 0.000240157c0.000181102,0.000114173 0.000366142,0.000224409 0.000547244,0.000318898 0.000299213,0.000153543 0.000602362,0.000283465 0.000905512,0.000385827l0 -3.93701e-006c0.000622047,0.000204724 0.00127559,0.000311024 0.00195276,0.000311024l0.00526772 0 1.1811e-005 0 0.000433071 0 0 3.93701e-006c0.00034252,-3.14961e-005 0.000685039,-9.05512e-005 0.00101969,-0.000185039 0.000114173,-3.14961e-005 0.000228346,-7.08661e-005 0.00034252,-0.000110236 0.000590551,-0.000208661 0.00117717,-0.000523622 0.00174016,-0.000937008l3.93701e-006 -7.87402e-006 0.000200787 -0.000149606 0.000192913 -0.00015748c0.000326772,-0.000271654 0.000665354,-0.000586614 0.001,-0.000933071l7.87402e-006 -7.87402e-006c0.00011811,-0.000125984 0.000267717,-0.000287402 0.000437008,-0.000480315 0.000161417,-0.000185039 0.000307087,-0.000358268 0.000433071,-0.000515748 0.000732283,-0.000905512 0.00145669,-0.00198031 0.00215748,-0.0032126l1.5748e-005 -3.93701e-005 7.87402e-006 -1.9685e-005 7.87402e-006 0 1.1811e-005 -3.93701e-005 0 -3.93701e-006 7.87402e-006 -1.5748e-005 3.93701e-006 -3.93701e-006 0.000173228 -0.000311024 0.000161417 -0.000311024c0.000279528,-0.00053937 0.000543307,-0.00111024 0.000791339,-0.00170472l7.87402e-006 -1.9685e-005 0 0 0.000169291 -0.000417323 0 0 0.000161417 -0.000413386 3.93701e-006 0c0.000259843,-0.000673228 0.000496063,-0.00137008 0.000708661,-0.0020748l1.5748e-005 -4.33071e-005c0.000240157,-0.000811024 0.000472441,-0.00166142 0.000681102,-0.00255118 0.000212598,-0.000905512 0.000405512,-0.00184252 0.00057874,-0.00280315 0.000905512,-0.00501575 0.00135827,-0.0111417 0.00135827,-0.0183661l0 -0.0697323zm-0.0615472 -1.12169l0 -7.87402e-006 2.3622e-005 0c3.93701e-006,-0.00954331 0.0038622,-0.0181693 0.0100906,-0.0243976l2.3622e-005 0c0.00622441,-0.00622441 0.0148386,-0.0100827 0.0243543,-0.0100866l0 -2.3622e-005 1.5748e-005 0 7.87402e-006 0 0 2.3622e-005c0.00952362,3.93701e-006 0.0181457,0.00386614 0.0243858,0.0101024l1.1811e-005 -1.1811e-005c0.00622835,0.00622835 0.0100827,0.0148504 0.0100866,0.0243819l2.3622e-005 0 0 1.9685e-005 0 7.87402e-006 -2.3622e-005 0c-3.93701e-006,0.00951969 -0.00387008,0.0181496 -0.0101142,0.0243898 -0.00622441,0.00622441 -0.0148386,0.0100827 -0.0243583,0.0100866l0 2.3622e-005 -1.9685e-005 0 -7.87402e-006 0 0 -2.3622e-005c-0.00951969,-3.93701e-006 -0.0181496,-0.00387008 -0.0243898,-0.0101142 -0.00622441,-0.00622441 -0.0100787,-0.0148386 -0.0100866,-0.0243543l-2.3622e-005 0 0 -1.5748e-005zm0 0.537594l0 -7.87402e-006 2.3622e-005 0c3.93701e-006,-0.00953937 0.0038622,-0.0181654 0.0100906,-0.0243976l2.3622e-005 0c0.00622441,-0.00622441 0.0148386,-0.0100787 0.0243543,-0.0100827l0 -2.3622e-005 1.5748e-005 0 7.87402e-006 0 0 2.3622e-005c0.00952362,3.93701e-006 0.0181457,0.0038622 0.0243858,0.0101024l1.1811e-005 -1.1811e-005c0.00622835,0.00622441 0.0100827,0.0148465 0.0100866,0.0243819l2.3622e-005 0 0 1.5748e-005 0 7.87402e-006 -2.3622e-005 0c-3.93701e-006,0.00952362 -0.00387008,0.0181535 -0.0101142,0.0243937 -0.00622441,0.00622441 -0.0148386,0.0100787 -0.0243583,0.0100827l0 2.3622e-005 -1.9685e-005 0 -7.87402e-006 0 0 -2.3622e-005c-0.00951969,0 -0.0181496,-0.00386614 -0.0243898,-0.0101102 -0.00622441,-0.00622835 -0.0100787,-0.0148386 -0.0100866,-0.0243543l-2.3622e-005 0 0 -1.9685e-005zm-0.084689 -0.624197l-1.5748e-005 0 0 -2.3622e-005c-0.00572835,-3.93701e-006 -0.0101969,-0.00164173 -0.0133937,-0.00491339 -0.00110236,-0.00112992 -0.00202362,-0.00244882 -0.00276378,-0.00396063 -0.0013189,-0.00270079 -0.00198425,-0.00587795 -0.00198425,-0.00951969l0 -0.149772 0 -7.87402e-005 2.75591e-005 0c0,-0.00617717 0.00026378,-0.0120433 0.000787402,-0.0175906 0.000114173,-0.00125591 0.000208661,-0.00220079 0.000267717,-0.00270079 0.000507874,-0.00458661 0.00120866,-0.00898819 0.00209843,-0.0132087 0.00106693,-0.00504331 0.00235827,-0.00973228 0.00387795,-0.0140551 0.00155512,-0.0044252 0.00332677,-0.00844094 0.00531496,-0.0120394l7.87402e-006 3.93701e-006 0 -1.5748e-005c0.000464567,-0.000838583 0.00105906,-0.00184252 0.0017874,-0.003 0.000688976,-0.00110236 0.0013189,-0.00205512 0.00188189,-0.00284252 0.0033937,-0.00477953 0.0072874,-0.00866535 0.0116732,-0.0116614l4.33071e-005 -4.72441e-005 2.3622e-005 -1.5748e-005 7.87402e-006 1.1811e-005c0.00153937,-0.00104331 0.0031378,-0.00197244 0.0047874,-0.00277165 0.00162598,-0.000787402 0.00335039,-0.00145669 0.00516535,-0.00201181 0.00356299,-0.00109055 0.00724409,-0.0016378 0.0110433,-0.0016378l0.0383031 0 2.3622e-005 0 0 2.3622e-005c0.0038622,3.93701e-006 0.00755118,0.000543307 0.0110551,0.00161811 0.00113386,0.000346457 0.0022874,0.000767717 0.00345276,0.00125984 0.00230315,0.000972441 0.00448425,0.00216535 0.00654331,0.00357087 0.00606693,0.00414567 0.011185,0.00998819 0.0153465,0.0175157 0.00198819,0.00359843 0.00376378,0.00761417 0.0053189,0.0120394 0.00151575,0.00432283 0.00281102,0.00900787 0.00387402,0.0140551l1.5748e-005 6.69291e-005c0.000338583,0.00161417 0.00061811,0.00305118 0.000834646,0.0042874 0.000216535,0.00124803 0.000448819,0.00273228 0.000692913,0.00445276 0.00109055,0.00770866 0.0016378,0.0159685 0.0016378,0.0247717l0 0.121051 0.0502559 0c0.00337795,0 0.00630315,0.000555118 0.00877953,0.00166142 0.00293701,0.00131102 0.00512598,0.00332677 0.00655906,0.00603937 0.00107087,0.00201969 0.00185827,0.00444882 0.00237008,0.00728346 0.000472441,0.0026378 0.000712598,0.00554331 0.000712598,0.00871654 0,0.0031063 -0.000240157,0.00595669 -0.000712598,0.00853937 -0.000507874,0.00275984 -0.00129134,0.00514567 -0.00235433,0.00716142l-2.3622e-005 6.69291e-005c-0.000377953,0.000720472 -0.000858268,0.00142913 -0.0014252,0.00212992 -0.000547244,0.000677165 -0.00114173,0.00127953 -0.00177559,0.00181102 -0.00297244,0.00248425 -0.00701969,0.00372835 -0.0121299,0.00372835l-0.167992 0zm0.022378 -0.0471142l0.0548228 0 0 -0.117906c0,-0.00872047 -0.000417323,-0.0158701 -0.00124803,-0.0214528 -0.000409449,-0.00274409 -0.000889764,-0.00520472 -0.00143701,-0.00737008 -0.000519685,-0.00207087 -0.00109449,-0.00383465 -0.00170866,-0.00528346 -0.00104331,-0.00245276 -0.00211024,-0.00405906 -0.00319685,-0.00481496 -0.000519685,-0.000362205 -0.00104331,-0.000625984 -0.00155906,-0.000787402 -0.000523622,-0.000165354 -0.00111024,-0.000248031 -0.00175197,-0.000248031l-0.0330197 0c-0.00110236,0 -0.00219291,0.000362205 -0.00327165,0.00108268 -0.000464567,0.000311024 -0.000948819,0.00080315 -0.00144094,0.00147244 -0.00061811,0.000850394 -0.00121654,0.00193701 -0.00177559,0.00324803l3.93701e-006 0 -1.1811e-005 2.75591e-005 -7.87402e-006 7.87402e-006 -3.93701e-006 1.1811e-005 -3.93701e-006 -3.93701e-006 -7.87402e-006 7.87402e-006c-0.000133858,0.000314961 -0.000299213,0.000744094 -0.000492126,0.00126772 -0.000137795,0.00038189 -0.000299213,0.000862205 -0.000476378,0.00143307l0 2.3622e-005c-0.000862205,0.00272441 -0.00158268,0.00603543 -0.00216142,0.0099252 -0.000834646,0.00558268 -0.00125197,0.0127323 -0.00125197,0.0214528l0 0.117906zm0.103547 -0.25598l0.00746457 0 1.1811e-005 0 0 2.3622e-005c0.0013189,0 0.00258661,-0.000448819 0.00379134,-0.00133858 0.000480315,-0.000354331 0.000964567,-0.000787402 0.00145276,-0.00129528 0.00107874,-0.00112205 0.00212598,-0.00258268 0.00314173,-0.00437402l-7.87402e-006 -3.93701e-006 7.87402e-006 -1.9685e-005 0 -3.93701e-006 1.5748e-005 -2.3622e-005 0 0c0.000413386,-0.000732283 0.000799213,-0.00152756 0.00114567,-0.00237402 0.000417323,-0.000996063 0.000771654,-0.00198819 0.00106693,-0.00296457 0.00176772,-0.00582283 0.00265354,-0.0137913 0.00265354,-0.0238858l2.3622e-005 0 0 -0.030378c0,-0.00648425 0.00217323,-0.0108543 0.00651575,-0.0131142 0.00164173,-0.000854331 0.0036063,-0.00147638 0.00588583,-0.00187402 0.00201181,-0.000346457 0.00427559,-0.000523622 0.0067874,-0.000523622l5.11811e-005 0 0 2.3622e-005c0.00259055,3.93701e-006 0.00485433,0.000173228 0.0067874,0.000503937 0.000751969,0.000129921 0.00143307,0.000271654 0.00203543,0.000425197 0.00134646,0.00034252 0.00262205,0.000814961 0.00382677,0.00141732l7.87402e-006 -1.5748e-005c0.00243701,0.00121654 0.00423622,0.0031378 0.00538976,0.00575984 0.000901575,0.00203937 0.00135039,0.00450787 0.00135039,0.00739764l2.3622e-005 0 0 0.031437 -2.3622e-005 0c0,0.0260709 -0.00411811,0.0458071 -0.0123583,0.0592047 -0.00883071,0.0143661 -0.0220236,0.0215512 -0.0395827,0.0215512l-0.0573189 0 -1.1811e-005 0 0 -2.75591e-005c-0.0175551,0 -0.030748,-0.0071811 -0.0395709,-0.0215236 -0.00823228,-0.0133898 -0.0123543,-0.0331142 -0.0123583,-0.0591614l-2.3622e-005 0 0 -4.33071e-005 2.3622e-005 0 0 -0.0610197 -2.3622e-005 0 0 -4.72441e-005 2.3622e-005 0c3.93701e-006,-0.0136457 0.000984252,-0.0253898 0.00293701,-0.0352244 0.000307087,-0.00153937 0.000665354,-0.0031378 0.00107087,-0.00479134 0.002,-0.00811024 0.00477165,-0.0149055 0.00831496,-0.0203819l1.9685e-005 -7.08661e-005 1.1811e-005 -1.1811e-005 1.5748e-005 7.87402e-006c0.00216535,-0.00333465 0.00461417,-0.00625984 0.00733858,-0.00876378 0.0027874,-0.00256299 0.00587795,-0.00470472 0.00926378,-0.0064252 0.00662992,-0.0033622 0.0142874,-0.00504724 0.0229685,-0.00504724l0 2.3622e-005 0.030378 0 0 -2.3622e-005c0.00674016,0 0.0116732,0.00156299 0.0147992,0.00467717l7.87402e-006 -1.1811e-005 1.5748e-005 1.5748e-005 0 1.9685e-005c0.000602362,0.000610236 0.00112992,0.00126772 0.0015748,0.0019685l-1.5748e-005 1.1811e-005c0.000429134,0.000677165 0.000795276,0.00137402 0.00110236,0.00209055l0 2.3622e-005c0.00132677,0.00312992 0.00199213,0.00748031 0.00199213,0.0130551l0 0.155126zm-0.0381339 0l0 -0.131421 -0.0117205 0 -1.1811e-005 0 0 -2.3622e-005c-0.00180315,0 -0.0033937,0.000476378 -0.00475591,0.0014252 -0.000507874,0.000350394 -0.000972441,0.000744094 -0.00138976,0.00116929 -0.001,0.0010315 -0.00192126,0.00237402 -0.00275984,0.00402756l-7.87402e-006 -7.87402e-006 -3.93701e-006 7.87402e-006 0 2.3622e-005c-0.000350394,0.000692913 -0.000692913,0.00149213 -0.00102362,0.0023937 -0.00034252,0.00092126 -0.00065748,0.0019252 -0.000944882,0.00299606 -0.00158661,0.00590945 -0.00238189,0.0139961 -0.00238189,0.024248l0 0.0589016c0,0.0137756 0.00160236,0.0235551 0.00479921,0.0293425 0.00141732,0.00256693 0.00291732,0.00442913 0.00449606,0.00558268 0.00121654,0.000889764 0.00254724,0.00133465 0.00398425,0.00133465l0.0117205 0zm-0.0885866 -0.362283c-0.00744094,0 -0.0125276,-0.00243307 -0.0152638,-0.00729921 -0.0011063,-0.00196457 -0.00192126,-0.00433858 -0.00244094,-0.00711417 -0.000472441,-0.0025315 -0.000712598,-0.00536614 -0.000712598,-0.00849606 0,-0.0031378 0.000240157,-0.00596063 0.000712598,-0.00846457 0.000523622,-0.00277165 0.00135433,-0.00513386 0.00248819,-0.00708268 0.00148031,-0.00255512 0.00369291,-0.00442913 0.00662598,-0.00562992 0.00240157,-0.000976378 0.00526772,-0.0014685 0.00859055,-0.0014685l0.134185 0c0.0346299,0 0.0519409,0.0269213 0.0519409,0.0807559l2.3622e-005 0 0 0.0633976 -2.3622e-005 0c0,0.0260669 -0.00411811,0.0458071 -0.0123583,0.0592047 -0.00883071,0.0143661 -0.0220236,0.0215472 -0.0395827,0.0215472l-0.0573189 0 -1.1811e-005 0 0 -2.3622e-005c-0.0175551,0 -0.030748,-0.0071811 -0.0395709,-0.0215236 -0.00823228,-0.0133898 -0.0123543,-0.0331142 -0.0123583,-0.0591614l-2.3622e-005 0 0 -4.33071e-005 0 -0.0985984 -0.0249016 0zm0.0635866 0.0975394c0,0.0137756 0.00160236,0.0235551 0.00479921,0.0293425 0.00141732,0.00256693 0.00291732,0.00442913 0.00449606,0.00558268 0.00121654,0.000889764 0.00254724,0.00133465 0.00398425,0.00133465l0.0573189 0 1.1811e-005 0 0 2.3622e-005c0.0013189,0 0.00258661,-0.000448819 0.00379134,-0.00133858 0.000480315,-0.000354331 0.000964567,-0.000787402 0.00145276,-0.00129528 0.00107874,-0.00112205 0.00212598,-0.00258268 0.00314173,-0.00437402l-7.87402e-006 -3.93701e-006 7.87402e-006 -1.9685e-005 0 -3.93701e-006 1.5748e-005 -2.3622e-005 0 0c0.000413386,-0.000732283 0.000799213,-0.00152756 0.00114567,-0.00237402 0.000417323,-0.000996063 0.000771654,-0.00198819 0.00106693,-0.00296457 0.00176772,-0.00582677 0.00265354,-0.0137913 0.00265354,-0.0238858l0 -0.0612795 0 -5.51181e-005 2.3622e-005 0c0,-0.00695669 -0.000452756,-0.0129882 -0.00135433,-0.0180866 -0.000141732,-0.000811024 -0.000295276,-0.00158661 -0.000452756,-0.00230315 -0.000791339,-0.0036378 -0.00182677,-0.00658268 -0.00309843,-0.00882677 -0.00263386,-0.00465748 -0.00543307,-0.00698819 -0.00839764,-0.00698819l-0.0705984 0 0 0.0975394zm0.0631339 -0.198035l0.00746457 0 1.1811e-005 0 0 2.3622e-005c0.0013189,0 0.00258661,-0.000448819 0.00379134,-0.00133858 0.000480315,-0.000354331 0.000964567,-0.000787402 0.00145276,-0.00129528 0.00107874,-0.00112205 0.00212598,-0.00258268 0.00314173,-0.00437402l-7.87402e-006 -3.93701e-006 7.87402e-006 -1.9685e-005 0 -3.93701e-006 1.5748e-005 -2.3622e-005 0 0c0.000413386,-0.000732283 0.000799213,-0.00152756 0.00114567,-0.00237402 0.000417323,-0.000996063 0.000771654,-0.00198819 0.00106693,-0.00296457 0.00176772,-0.00582677 0.00265354,-0.0137913 0.00265354,-0.0238858l2.3622e-005 0 0 -0.030378c0,-0.00648425 0.00217323,-0.0108543 0.00651575,-0.0131142 0.00164173,-0.000854331 0.0036063,-0.00147638 0.00588583,-0.00187402 0.00201181,-0.000350394 0.00427559,-0.000523622 0.0067874,-0.000523622l5.11811e-005 0 0 2.3622e-005c0.00259055,3.93701e-006 0.00485433,0.000173228 0.0067874,0.000503937 0.000751969,0.000129921 0.00143307,0.000271654 0.00203543,0.000425197 0.00134646,0.00034252 0.00262205,0.000814961 0.00382677,0.00141732l7.87402e-006 -1.9685e-005c0.00243701,0.00122047 0.00423622,0.00314173 0.00538976,0.00576378 0.000901575,0.00203937 0.00135039,0.00450787 0.00135039,0.00739764l2.3622e-005 0 0 0.031437 -2.3622e-005 0c0,0.0260669 -0.00411811,0.0458071 -0.0123583,0.0592047 -0.00883071,0.0143661 -0.0220236,0.0215472 -0.0395827,0.0215472l-0.0573189 0 -1.1811e-005 0 0 -2.3622e-005c-0.0175551,0 -0.030748,-0.0071811 -0.0395709,-0.0215236 -0.00823228,-0.0133898 -0.0123543,-0.0331142 -0.0123583,-0.0591614l-2.3622e-005 0 0 -4.33071e-005 2.3622e-005 0 0 -0.0610197 -2.3622e-005 0 0 -4.72441e-005 2.3622e-005 0c3.93701e-006,-0.0136457 0.000984252,-0.0253898 0.00293701,-0.0352244 0.000307087,-0.00153937 0.000665354,-0.0031378 0.00107087,-0.00479134 0.002,-0.00811024 0.00477165,-0.0149094 0.00831496,-0.0203819l1.9685e-005 -7.08661e-005 1.1811e-005 -1.5748e-005 1.5748e-005 1.1811e-005c0.00216535,-0.00333465 0.00461417,-0.00625984 0.00733858,-0.00876378 0.0027874,-0.00256299 0.00587795,-0.00470472 0.00926378,-0.0064252 0.00662992,-0.0033622 0.0142874,-0.00504724 0.0229685,-0.00504724l0 2.3622e-005 0.030378 0 0 -2.3622e-005c0.00674016,0 0.0116732,0.00155906 0.0147992,0.00467717l7.87402e-006 -1.1811e-005 1.5748e-005 1.5748e-005 0 1.9685e-005c0.000602362,0.000610236 0.00112992,0.00126772 0.0015748,0.0019685l-1.5748e-005 1.1811e-005c0.000429134,0.000677165 0.000795276,0.00137402 0.00110236,0.00209055l0 2.3622e-005c0.00132677,0.00312992 0.00199213,0.00748031 0.00199213,0.0130551l0 0.155126zm-0.0381339 0l0 -0.131421 -0.0117205 0 -1.1811e-005 0 0 -2.3622e-005c-0.00180315,0 -0.0033937,0.000476378 -0.00475591,0.00142126 -0.000507874,0.000354331 -0.000972441,0.000748031 -0.00138976,0.00117323 -0.001,0.0010315 -0.00192126,0.00237402 -0.00275984,0.00402756l-7.87402e-006 -7.87402e-006 -3.93701e-006 7.87402e-006 0 2.3622e-005c-0.000350394,0.000692913 -0.000692913,0.00149213 -0.00102362,0.0023937 -0.00034252,0.00092126 -0.00065748,0.0019252 -0.000944882,0.00299606 -0.00158661,0.00590945 -0.00238189,0.0139961 -0.00238189,0.024248l0 0.0589016c0,0.0137756 0.00160236,0.0235551 0.00479921,0.0293425 0.00141732,0.00256693 0.00291732,0.00442913 0.00449606,0.00558268 0.00121654,0.000889764 0.00254724,0.00133465 0.00398425,0.00133465l0.0117205 0zm0.00799213 1.18775l0 -0.142933 -0.107634 0.0733701 0.107634 0.069563z"/>
   <path id="_163979472" fill="none" fill-rule="nonzero" stroke="red" stroke-width="0.003" d="M3.93419 3.60621l0.192677 0.0110276 0.000889764 9.44882e-005 0.000452756 5.90551e-005 0.000448819 6.69291e-005 0.000448819 6.69291e-005 0.000444882 7.48031e-005 0.000440945 7.08661e-005 0.000437008 7.87402e-005 0.000437008 8.26772e-005 0.000433071 8.66142e-005 0.000433071 8.66142e-005 0.000425197 9.44882e-005 0.000425197 9.44882e-005 0.000425197 9.84252e-005 0.000417323 0.000102362 0.000417323 0.000106299 0.000413386 0.000106299 0 3.93701e-006 0.000413386 0.000110236 0 0 0.000405512 0.000114173 0 0 0.000405512 0.00011811 0 0 0.000405512 0.000122047 0 0 0.000397638 0.000125984 0 0 0.000397638 0.000129921 0 0 0.000393701 0.000129921 0 3.93701e-006 0.000389764 0.000133858 0 0 0.000389764 0.000137795 0 3.93701e-006 0.000385827 0.000137795 0 0 0.00038189 0.000145669 0 0 0.00038189 0.000149606 0 0 0.000377953 0.000153543 0 0 0.000374016 0.000153543 0 3.93701e-006 0.000374016 0.00015748 0 0 0.000370079 0.000161417 0 0 0.000366142 0.000169291 0 0 0.000362205 0.000165354 0 3.93701e-006 0.000362205 0.000169291 0 3.93701e-006 0.000358268 0.000173228 0 0 0.000358268 0.000177165 0 0 0.000350394 0.000181102 0 3.93701e-006 0.000350394 0.000185039 0 0 0.000346457 0.000188976 0 0 0.000346457 0.000192913 0 3.93701e-006 0.000338583 0.000192913 0 0 0.000338583 0.00019685 0 3.93701e-006 0.000334646 0.000200787 0 0 0.000334646 0.000204724 0 3.93701e-006 0.000330709 0.000204724 0 3.93701e-006 0.000326772 0.000208661 0 3.93701e-006 0.000326772 0.000212598 0 3.93701e-006 0.000322835 0.000220472 0 0 0.000318898 0.000220472 0.000314961 0.000224409 0.000311024 0.000232283 0.000314961 0.000232283 0.000307087 0.00023622 0.00030315 0.000240157 0.00030315 0.000244094 0.000299213 0.000248031 0.000299213 0.000248031 0.000295276 0.000251969 0.000287402 0.000255906 0.000291339 0.000259843 0.000283465 0.00026378 0.000283465 0.000267717 0.000279528 0.000271654 0.000279528 0.000271654 2.3622e-005 2.3622e-005 2.3622e-005 2.3622e-005c0.00586614,0.00588583 0.00944094,0.0136811 0.0107244,0.0233701l9.44882e-005 0.000846457 0.00197244 0.0326063 0.0858307 -0.0760236 0.0043622 -0.00248819 0.0883346 -0.0276575 0 -0.0732559 -0.0885236 -0.0291417 -0.00417323 -0.00243701 -0.146587 -0.129846c-0.0033937,-0.00256693 -0.00653937,-0.00385433 -0.0094252,-0.00385433 -0.00279134,0 -0.00582283,0.00120079 -0.00908661,0.00359843l-0.145709 0.129929 -0.00426772 0.00244094 -0.0892559 0.0293031 0 0.0558504 0.0887244 0.0448701zm-0.487031 -0.25435c-0.000259843,-0.0462559 0.0121339,-0.0819134 0.0371811,-0.106965 0.029,-0.0289961 0.0742874,-0.0428858 0.135854,-0.0416654l-0.000468504 0.0239173c-0.0547008,-0.00108268 -0.0941693,0.0104921 -0.118406,0.0347283 -0.0232402,0.0232402 -0.0330827,0.0589843 -0.0295394,0.107228l0.0953465 0.0850197 0.095063 0.0296929 0.0083937 0.00262205 3.93701e-006 0.00882283 0 0.0773346 0.0442638 0.0442677 0.0623819 -3.93701e-006 0.0442165 -0.0442165 0 -0.0758268 0 -0.00866929 0.00830315 -0.00272835 0.0951339 -0.0312323 0.144083 -0.12848 0.000700787 -0.000562992c0.00777953,-0.00595669 0.015815,-0.00893701 0.0241142,-0.00893701 0.00829528,0 0.0163346,0.00298031 0.0241142,0.00893701l0.000653543 0.000562992 0.145185 0.128602 0.0945118 0.0311142 0.00825591 0.00271654 0 0.0086811 0 0.0907323 0 0.00879921 -0.00844094 0.00264567 -0.0943701 0.0295472 -0.0978898 0.0867087 0.00791732 0.130724 0.0447874 0.088748 0.00391732 0.00776378 -0.00612205 0.00611811 -0.0641575 0.0641614 -0.00620472 0.00620079 -0.0078189 -0.00409055 -0.0875512 -0.0457992 -0.130681 -0.00791339 -0.086748 0.0979331 -0.0311142 0.0945118 -0.00271654 0.00825591 -0.0086811 0 -0.0907323 0 -0.00879921 0 -0.00264567 -0.00844094 -0.0295472 -0.0943701 -0.0867087 -0.0978898 -0.130728 0.00791732 -0.088748 0.0447874 -0.00775984 0.00391732 -0.00612205 -0.00612205 -0.0641575 -0.0641575 -0.00620079 -0.00620079 0.00409055 -0.00782283 0.0457953 -0.0875472 0.00791732 -0.130685 -0.097937 -0.086748 -0.0945118 -0.0311142 -0.00825591 -0.00271654 0 -0.00867717 0 -0.0907362 0 -0.00879921 0.00844488 -0.00264173 0.0943661 -0.0295512 0.0961299 -0.0851496c0.000586614,-0.00798425 0.000807087,-0.0156457 0.000661417,-0.0229724 -0.000720472,-0.036315 -0.0105236,-0.0641535 -0.0294094,-0.0835157 -0.0190157,-0.0195 -0.0477205,-0.0309764 -0.0861063,-0.034437 -0.0103307,-0.000929134 -0.0213661,-0.00127953 -0.0330945,-0.00104724l-0.000468504 -0.0239173c0.0125512,-0.000248031 0.0244291,0.000129921 0.035626,0.0011378 0.0443425,0.00399606 0.0780827,0.0178504 0.101209,0.0415669 0.0232638,0.0238465 0.0353189,0.0570945 0.0361614,0.0997441 5.11811e-005,0.00252362 6.29921e-005,0.00508661 3.54331e-005,0.0076811l0.0193701 -0.0083189c0.00382283,-0.00243701 0.00867717,-0.00396457 0.0135866,-0.0048937 0.00117717,-0.000220472 0.00209843,-0.00038189 0.00281102,-0.000488189 0.00529921,-0.000783465 0.0108543,-0.000984252 0.0141614,-0.000984252l5.51181e-005 0 0.00103937 -3.93701e-006c0.00699213,-1.9685e-005 0.0201339,-5.90551e-005 0.0287323,0.00544094l0.0182677 0.00774803zm-0.297563 0.152201l0 0.0732559 0.0885197 0.0291417 0.00417323 0.00243701 0.104228 0.0923268 0.0423543 0.0375118 0.000181102 0.000137795 1.1811e-005 7.87402e-006 0.000188976 0.000137795 1.1811e-005 7.87402e-006c0.000901575,0.000661417 0.00179921,0.00124016 0.00268504,0.00172835 0.00023622,0.000129921 0.000472441,0.000251969 0.00069685,0.000366142l3.93701e-006 3.93701e-006 4.33071e-005 1.9685e-005 1.5748e-005 7.87402e-006 7.08661e-005 3.54331e-005 3.93701e-006 3.93701e-006 3.14961e-005 1.5748e-005 1.1811e-005 3.93701e-006 4.33071e-005 2.3622e-005 4.72441e-005 1.9685e-005 4.33071e-005 2.3622e-005 5.90551e-005 2.75591e-005c0.000937008,0.000444882 0.0018622,0.000775591 0.00275591,0.001 0.00341339,0.000767717 0.00705512,-0.000173228 0.0109213,-0.00282677l0.000102362 -7.08661e-005 3.93701e-006 0 0.000106299 -7.48031e-005 0.000102362 -7.48031e-005 0 0 0.000106299 -7.48031e-005 0.000106299 -7.48031e-005 0.000212598 -0.000153543 0.145657 -0.129886 0.00426772 -0.00244094 0.0893071 -0.0293189 -3.93701e-006 -0.0732244 -0.0891614 -0.0278504 -0.00440945 -0.00248819 -0.100811 -0.0898937 -0.00820472 -0.0073189 -0.0256535 -0.010874 -0.0025315 -0.00145669 -7.48031e-005 -5.51181e-005 -3.93701e-006 7.87402e-006c-0.00216535,-0.00160236 -0.0110394,-0.0015748 -0.0156575,-0.00156299l-0.00103937 0 -5.51181e-005 0c-0.00233858,3.93701e-006 -0.00639764,0.000161417 -0.0106929,0.000799213 -0.000850394,0.000125984 -0.0015,0.000232283 -0.00187008,0.000299213 -0.00234646,0.000444882 -0.00431496,0.000952756 -0.00498425,0.00146457l-0.0025315 0.0015 -0.0302795 0.0130039 -0.00473622 0.00418898 -0.101681 0.0900669 -0.0043622 0.00248819 -0.0883307 0.0276575zm0.27352 0.253043l-0.000700787 0.000562992 -1.1811e-005 7.87402e-006 -0.000232283 0.000177165 -0.000240157 0.000181102 -0.00023622 0.000177165 -0.00023622 0.000177165 -0.000476378 0.00034252 -0.000177165 0.000125984 -6.29921e-005 4.33071e-005 -0.00023622 0.000169291 -7.87402e-005 5.51181e-005c-0.0094685,0.00662205 -0.0191654,0.00887008 -0.0290866,0.00674803 -0.00367323,-0.000748031 -0.00729134,-0.0021063 -0.0108583,-0.00407087l-6.69291e-005 -3.14961e-005 -4.72441e-005 -3.14961e-005 -4.72441e-005 -2.75591e-005 -9.84252e-005 -5.11811e-005 -9.84252e-005 -5.51181e-005 -9.84252e-005 -5.51181e-005 -1.9685e-005 -1.5748e-005 -0.000350394 -0.00019685 -3.14961e-005 -1.9685e-005 -0.000673228 -0.000397638 -0.000153543 -9.44882e-005 -3.54331e-005 -1.9685e-005 -5.11811e-005 -3.14961e-005 -9.44882e-005 -5.90551e-005 -9.05512e-005 -5.51181e-005 -0.000110236 -6.69291e-005 -0.000322835 -0.000200787 -1.9685e-005 -1.1811e-005 -0.00073622 -0.000472441 -9.44882e-005 -6.69291e-005 -3.54331e-005 -2.3622e-005 -9.84252e-005 -6.29921e-005 -4.72441e-005 -3.14961e-005 -4.72441e-005 -3.54331e-005 -9.84252e-005 -6.29921e-005 -3.14961e-005 -2.3622e-005 -0.000314961 -0.000208661 -9.84252e-005 -7.08661e-005 -3.93701e-005 -2.75591e-005 -9.84252e-005 -6.69291e-005 -0.000181102 -0.000125984 -1.1811e-005 -7.87402e-006 -9.84252e-005 -7.08661e-005 -9.84252e-005 -6.69291e-005 -0.00011811 -8.26772e-005 -7.48031e-005 -5.11811e-005 -3.54331e-005 -2.75591e-005 -0.000145669 -0.000106299 -1.9685e-005 -1.5748e-005 -0.000129921 -9.05512e-005 -5.90551e-005 -3.93701e-005 -9.44882e-005 -7.08661e-005 -9.84252e-005 -7.08661e-005 -1.5748e-005 -1.1811e-005 -0.000141732 -0.000106299 -8.66142e-005 -6.29921e-005 -4.33071e-005 -3.54331e-005 -9.84252e-005 -7.08661e-005 -9.84252e-005 -7.08661e-005 -8.26772e-005 -6.29921e-005 -1.5748e-005 -1.1811e-005 -3.14961e-005 -2.3622e-005 -0.000141732 -0.000106299 -3.54331e-005 -2.75591e-005 -0.000188976 -0.000141732 -0.000653543 -0.000562992 -0.0244685 -0.0216693 -0.00692913 0.114433 -0.0013622 0.00483071 -0.0429134 0.0820354 0.0518386 0.0518346 0.0831969 -0.0419843 0.00468898 -0.00126772 0.114433 -0.00692913 0 -3.93701e-006 0.0245512 -0.00148425 0.0568228 -0.00344094c0.00405118,-0.000606299 0.00706299,-0.00188976 0.00902756,-0.00385039l4.33071e-005 -4.72441e-005c0.00196457,-0.00196457 0.00325197,-0.00498425 0.00385039,-0.00903937l0.0111535 -0.194799 0.00126378 -0.00473622 0.0424173 -0.083874 -0.020252 -0.020248 -0.0192441 -0.0192441 -0.0944528 0.0310039 -0.144083 0.12848zm0.258126 -0.0275472l-0.0110315 0.192677 -9.44882e-005 0.000889764 -5.90551e-005 0.000448819 -6.69291e-005 0.000452756 -6.69291e-005 0.000444882 -7.08661e-005 0.000444882 -7.48031e-005 0.000440945 -7.87402e-005 0.000440945 -8.26772e-005 0.000437008 0 0 -8.26772e-005 0.000433071 -3.93701e-006 0 -8.66142e-005 0.000429134 0 0 -9.05512e-005 0.000429134 -9.44882e-005 0.000425197 -0.000102362 0.00042126 -9.84252e-005 0.000417323 -0.000106299 0.000417323 -0.000110236 0.000413386 -0.000114173 0.000413386 -0.000110236 0.000405512 -0.00011811 0.000409449 -0.000122047 0.000401575 -0.000125984 0.000401575 -0.000129921 0.000393701 -0.000133858 0.000393701 -0.000133858 0.000393701 -0.000141732 0.000389764 -0.000137795 0.00038189 -0.000145669 0.000385827 -0.000149606 0.000377953 -0.000153543 0.00038189 -0.00015748 0.000374016 -0.00015748 0.000370079 -0.000165354 0.000370079 -0.000165354 0.000370079 -0.000169291 0.000362205 -0.000173228 0.000362205 -0.000173228 0.000354331 -0.000181102 0.000358268 -0.000181102 0.000350394 -0.000185039 0.000350394 0 0 -0.000188976 0.000346457 0 0 -0.00019685 0.000346457 0 0 -0.000192913 0.000338583 0 0 -0.000200787 0.000338583 0 3.93701e-006 -0.000200787 0.000330709 0 3.93701e-006 -0.000208661 0.000330709 0 3.93701e-006 -0.000208661 0.000326772 0 0 -0.000212598 0.000326772 0 3.93701e-006 -0.000216535 0.000322835 0 0 -0.000220472 0.000322835 0 0 -0.000224409 0.000318898 0 0 -0.000224409 0.000314961 0 0 -0.000228346 0.000311024 0 3.93701e-006 -0.000232283 0.000311024 0 0 -0.00023622 0.000307087 0 0 -0.000240157 0.00030315 0 0 -0.000244094 0.00030315 0 0 -0.000248031 0.000299213 0 3.93701e-006 -0.000248031 0.000295276 0 0 -0.000251969 0.000295276 0 0 -0.000255906 0.000287402 0 3.93701e-006 -0.00026378 0.000287402 -0.00026378 0.000283465 -0.000267717 0.000283465 -0.000267717 0.000283465 -0.000275591 0.000279528 -2.3622e-005 1.9685e-005 -2.3622e-005 2.3622e-005c-0.00588583,0.00586614 -0.0136772,0.00944094 -0.0233701,0.0107244l-0.00084252 9.44882e-005 -0.0326063 0.00197638 0.0760236 0.0858268 0.00248819 0.0043622 0.0276575 0.0883346 0.0732559 0 0.0291417 -0.0885236 0.00243701 -0.00417323 0.0760276 -0.0858307 0.0162953 -0.0183976 0.0375039 -0.0423386c0.00257874,-0.00340157 0.00387402,-0.00655118 0.00387402,-0.00944488 0,-0.00279921 -0.0012126,-0.00584252 -0.00362598,-0.00911811l-0.129906 -0.145677 -0.00243701 -0.00426772 -0.0293031 -0.0892559 -0.0286929 0 4.33071e-005 -4.72441e-005 -0.0271811 0 -0.0448898 0.0887756zm0.15202 -0.00930709l0.12848 0.144083 0.000562992 0.000700787c0.00596063,0.00777953 0.00894094,0.015815 0.00894094,0.0241142 0,0.00829528 -0.00298031,0.0163346 -0.00894094,0.0241142l-0.000562992 0.00065748 -0.0216693 0.0244646 0.114429 0.00693307 0.00483071 0.00135827 0.0820354 0.0429134 0.0518386 -0.0518346 -0.0419882 -0.0831969 -0.00126378 -0.00469291 -0.00693307 -0.114433 0 3.93701e-006 -0.00148425 -0.0245512 -0.00344488 -0.0568307c-0.000602362,-0.00405118 -0.00188583,-0.00705512 -0.00385039,-0.00901969l-4.72441e-005 -4.72441e-005c-0.00195669,-0.00195669 -0.00496063,-0.00324409 -0.00899606,-0.00384646l-0.194839 -0.0111535 -0.00473622 -0.00126772 -0.083874 -0.0424134 -0.0394961 0.0394921 0.0310079 0.0944528z"/>
  </g>
  <path fill="none" fill-rule="nonzero" stroke="red" stroke-width="0.003" d="M1.42141 2.89457l-0.0147953 0.258441 -0.000125984 0.00119685 -8.26772e-005 0.000602362 -8.66142e-005 0.000606299 -9.05512e-005 0.000598425 -9.44882e-005 0.000598425 -0.000102362 0.000590551 -0.000106299 0.000590551 -0.000106299 0.000582677 -0.00011811 0.000582677 -0.00011811 0.000574803 -0.000122047 0.000574803 -0.000125984 0.000570866 -0.000133858 0.000566929 -0.000137795 0.000562992 -0.000141732 0.000559055 -0.000145669 0.000555118 0 0 -0.000153543 0.000555118 0 0 -0.000149606 0.000543307 -3.93701e-006 0 -0.000153543 0.000543307 -3.93701e-006 0 -0.000161417 0.00053937 0 0 -0.000169291 0.00053937 0 0 -0.000173228 0.000531496 0 0 -0.000177165 0.000527559 0 0 -0.000181102 0.000523622 0 0 -0.000188976 0.000523622 0 0 -0.000188976 0.000515748 0 0 -0.000192913 0.000515748 -3.93701e-006 0 -0.00019685 0.000507874 0 0 -0.000204724 0.000507874 -3.93701e-006 0 -0.000204724 0.000503937 -3.93701e-006 0 -0.000212598 0.0005 0 0 -0.000216535 0.000496063 -3.93701e-006 0 -0.000220472 0.000492126 -3.93701e-006 0 -0.000224409 0.000488189 0 0 -0.000228346 0.000484252 -3.93701e-006 0 -0.000232283 0.000480315 0 0 -0.000240157 0.000476378 0 0 -0.000244094 0.000472441 0 0 -0.000248031 0.000468504 -3.93701e-006 0 -0.000251969 0.000464567 0 0 -0.000259843 0.000464567 -3.93701e-006 0 -0.000259843 0.000456693 0 0 -0.000267717 0.000456693 0 0 -0.000267717 0.000448819 -3.93701e-006 0 -0.000275591 0.000448819 0 0 -0.000279528 0.000440945 0 0 -0.000287402 0.000440945 0 0 -0.000287402 0.000433071 -3.93701e-006 0 -0.000295276 0.000437008 0 0 -0.000299213 0.000425197 -0.000299213 0.000425197 -0.000311024 0.000417323 -0.000311024 0.000417323 -0.000318898 0.000413386 -0.000318898 0.000409449 -0.000326772 0.000405512 -0.000330709 0.000405512 -0.000334646 0.000393701 -0.000338583 0.000397638 -0.000346457 0.000389764 -0.000350394 0.000385827 -0.000350394 0.00038189 -0.000358268 0.00038189 -0.000362205 0.000377953 -0.000370079 0.000374016 -3.14961e-005 2.75591e-005 -3.14961e-005 3.54331e-005c-0.0078937,0.00786614 -0.0183465,0.0126614 -0.0313465,0.0143819l-0.00113386 0.000125984 -0.0437362 0.00264961 0.101976 0.115122 0.00333465 0.00585433 0.0370984 0.118484 0.0982598 0 0.0390866 -0.118736 0.00327165 -0.00560236 0.174161 -0.196618c0.00344882,-0.00455512 0.00517323,-0.00876772 0.00517323,-0.0126417 0,-0.00374803 -0.0016063,-0.00781102 -0.00482677,-0.012189l-0.17428 -0.195441 -0.00327165 -0.00572441 -0.0393031 -0.119724 -0.0749173 0 -0.0601811 0.119012zm0.341165 -0.653272c0.0620433,-0.000346457 0.109874,0.0162756 0.143472,0.049874 0.0388976,0.0388976 0.0575236,0.0996417 0.0558898,0.182228l-0.0320827 -0.000629921c0.00145276,-0.073374 -0.0140748,-0.126315 -0.0465787,-0.158823 -0.0311732,-0.0311732 -0.0791181,-0.044374 -0.143831,-0.039622l-0.114043 0.127894 -0.0398268 0.127512 -0.00351575 0.0112559 -0.0118346 3.93701e-006 -0.103732 0 -0.059374 0.059374 3.93701e-006 0.0836732 0.0593071 0.059311 0.101709 0 0.0116339 0 0.00365354 0.0111339 0.0418937 0.127602 0.172335 0.193264 0.000751969 0.000944882c0.00799606,0.0104291 0.0119921,0.0212126 0.0119921,0.0323425 0,0.0111299 -0.00399606,0.0219094 -0.0119921,0.0323425l-0.000751969 0.00088189 -0.172496 0.194736 -0.0417323 0.126776 -0.00364567 0.0110709 -0.0116417 0 -0.121705 0 -0.0118031 0 -0.00354724 -0.0113228 -0.0396339 -0.126583 -0.116303 -0.131299 -0.175346 0.0106181 -0.119039 0.0600748 -0.0104094 0.00525197 -0.0082126 -0.00820866 -0.0860591 -0.0860591 -0.00831496 -0.0083189 0.00548819 -0.0104882 0.0614252 -0.117433 0.0106181 -0.175287 -0.131362 -0.116358 -0.126772 -0.0417323 -0.0110748 -0.00364567 0 -0.0116417 0 -0.121705 0 -0.0118031 0.0113268 -0.00354724 0.126579 -0.0396339 0.131299 -0.116307 -0.0106181 -0.175343 -0.0600748 -0.119043 -0.00525197 -0.0104094 0.00820866 -0.00820866 0.0860551 -0.0860591 0.0083189 -0.0083189 0.0104921 0.00548819 0.117433 0.0614291 0.175291 0.0106142 0.116354 -0.131358 0.0417323 -0.126776 0.00364567 -0.0110709 0.0116417 0 0.121705 0 0.0118031 0 0.00354724 0.0113228 0.0396339 0.126579 0.114213 0.128941c0.0107126,0.000787402 0.0209882,0.00108268 0.030815,0.000885827 0.0487087,-0.000964567 0.0860551,-0.0141142 0.112024,-0.0394449 0.0261535,-0.0255079 0.0415472,-0.0640118 0.046189,-0.115496 0.00124803,-0.0138583 0.00171654,-0.0286575 0.00140551,-0.0443898l0.0320827 -0.000629921c0.000334646,0.0168346 -0.000177165,0.0327638 -0.0015315,0.0477874 -0.00535827,0.0594764 -0.0239409,0.104728 -0.055748,0.135756 -0.0319882,0.0311969 -0.0765866,0.0473661 -0.133791,0.0485039 -0.00338976,6.69291e-005 -0.00682677,8.26772e-005 -0.0103071,4.33071e-005l0.0111575 0.0259803c0.00327559,0.00513386 0.00532283,0.0116417 0.00656693,0.0182244 0.000299213,0.00157874 0.000511811,0.00281496 0.000653543,0.00376772 0.00105512,0.00711417 0.0013189,0.014563 0.00132283,0.019l0 7.48031e-005 3.93701e-006 0.00138976c2.75591e-005,0.00937795 7.87402e-005,0.0270118 -0.00729921,0.0385433l-0.0103898 0.0245zm-0.204154 -0.39913l-0.0982598 0 -0.0390866 0.118736 -0.00327165 0.00559843 -0.123835 0.139807 -0.0503189 0.0568071 -0.000181102 0.000244094 -1.5748e-005 1.5748e-005 -0.000185039 0.000251969 -1.1811e-005 1.5748e-005c-0.00088189,0.00120866 -0.00166142,0.00241339 -0.00231496,0.0036063 -0.000177165,0.000314961 -0.000338583,0.000629921 -0.000492126,0.000933071l-3.93701e-006 3.93701e-006 -2.75591e-005 5.51181e-005 -1.1811e-005 1.9685e-005 -4.72441e-005 9.84252e-005 -3.93701e-006 3.93701e-006 -1.9685e-005 4.72441e-005 -3.93701e-006 1.1811e-005 -3.54331e-005 6.29921e-005 -2.75591e-005 5.90551e-005 -2.75591e-005 5.90551e-005 -3.93701e-005 7.48031e-005c-0.000598425,0.00126378 -0.00103937,0.0025 -0.00133858,0.00370079 -0.00103543,0.00457874 0.000228346,0.00946457 0.0037874,0.0146496l9.44882e-005 0.000137795 3.93701e-006 3.93701e-006 9.84252e-005 0.000141732 9.84252e-005 0.000137795 0 0 0.000102362 0.000141732 0.000102362 0.000141732 0.000204724 0.000283465 0.17422 0.195378 0.00327165 0.00572441 0.0393268 0.119787 0.0982205 0 0.0373543 -0.119598 0.00333465 -0.00591339 0.120583 -0.135224 0.00981102 -0.0110039 0.0145906 -0.0344055 0.00194882 -0.00339764 7.87402e-005 -9.84252e-005 -1.1811e-005 -7.87402e-006c0.00214961,-0.00290551 0.00211417,-0.0148071 0.00209843,-0.0210039l-3.93701e-006 -0.00138976 0 -7.48031e-005c0,-0.0031378 -0.000216535,-0.00858268 -0.00107087,-0.0143425 -0.000169291,-0.00114173 -0.000311024,-0.00201575 -0.000405512,-0.00251181 -0.000594488,-0.00314567 -0.00127165,-0.0057874 -0.00195669,-0.0066811l-0.00201575 -0.00339764 -0.0174409 -0.0406181 -0.00562205 -0.00634646 -0.120811 -0.13639 -0.00333465 -0.00585039 -0.0370984 -0.118484zm-0.339413 0.366886l-0.000755906 -0.000944882 -7.87402e-006 -1.1811e-005 -0.000240157 -0.000314961 -0.000240157 -0.000318898 -0.00023622 -0.000318898 -0.00023622 -0.000318898 -0.00046063 -0.000637795 -0.000173228 -0.000240157 -5.51181e-005 -7.87402e-005 -0.000228346 -0.000322835 -7.48031e-005 -0.000102362c-0.00887795,-0.0127008 -0.0118976,-0.0257047 -0.00904724,-0.0390118 0.00100394,-0.00492913 0.00282283,-0.00978346 0.00545669,-0.0145669l4.72441e-005 -9.05512e-005 3.54331e-005 -6.29921e-005 3.54331e-005 -6.69291e-005 7.48031e-005 -0.000129921 7.48031e-005 -0.000129921 7.08661e-005 -0.000129921 1.9685e-005 -3.14961e-005 0.000267717 -0.000468504 2.3622e-005 -4.33071e-005 0.000531496 -0.000901575 0.000125984 -0.000204724 3.14961e-005 -4.72441e-005 3.93701e-005 -7.08661e-005 7.87402e-005 -0.000125984 7.87402e-005 -0.000122047 8.66142e-005 -0.000145669 0.000267717 -0.000433071 1.9685e-005 -2.75591e-005 0.000633858 -0.000984252 8.66142e-005 -0.000133858 3.14961e-005 -4.33071e-005 8.66142e-005 -0.000133858 4.33071e-005 -6.29921e-005 4.33071e-005 -6.29921e-005 8.66142e-005 -0.000133858 2.75591e-005 -3.93701e-005 0.000287402 -0.00042126 9.05512e-005 -0.000133858 3.93701e-005 -5.51181e-005 9.05512e-005 -0.000129921 0.000169291 -0.000244094 7.87402e-006 -1.5748e-005 9.44882e-005 -0.000129921 9.05512e-005 -0.000129921 0.000110236 -0.000161417 7.08661e-005 -0.000102362 3.54331e-005 -4.33071e-005 0.000141732 -0.000200787 1.9685e-005 -2.3622e-005 0.000125984 -0.000177165 5.11811e-005 -7.48031e-005 9.84252e-005 -0.000125984 9.05512e-005 -0.000133858 1.5748e-005 -1.9685e-005 0.000141732 -0.000192913 8.66142e-005 -0.000114173 4.72441e-005 -5.90551e-005 9.44882e-005 -0.000133858 9.84252e-005 -0.000125984 8.26772e-005 -0.000114173 1.1811e-005 -1.9685e-005 3.54331e-005 -4.72441e-005 0.000141732 -0.000185039 3.54331e-005 -5.11811e-005 0.000188976 -0.000248031 0.000755906 -0.00088189 0.0290669 -0.0328189 -0.153488 -0.00929528 -0.00648031 -0.00182677 -0.110039 -0.0575591 -0.0695276 0.0695315 0.0563189 0.111594 0.00169685 0.00629134 0.00929528 0.153488 3.93701e-006 0 0.00199213 0.0329331 0.00461811 0.0762205c0.000807087,0.00542913 0.00252756,0.00947244 0.00516142,0.0121024l6.29921e-005 6.29921e-005c0.0026378,0.0026378 0.0066811,0.00435827 0.012126,0.00516535l0.261283 0.0149567 0.00635433 0.00169685 0.112504 0.0568937 0.0271614 -0.0271614 0.025815 -0.025815 -0.0415906 -0.126689 -0.172335 -0.19326zm0.0369528 0.346224l-0.258445 -0.0147953 -0.00119291 -0.000125984 -0.000606299 -7.87402e-005 -0.000602362 -9.05512e-005 -0.000598425 -8.66142e-005 -0.000598425 -9.84252e-005 -0.000590551 -9.84252e-005 -0.000590551 -0.000106299 -0.000582677 -0.000110236 0 0 -0.000582677 -0.000114173 0 0 -0.00057874 -0.00011811 0 0 -0.000570866 -0.000125984 -0.000570866 -0.000125984 -0.000566929 -0.000133858 -0.000562992 -0.000133858 -0.000559055 -0.000141732 -0.000555118 -0.000145669 -0.000551181 -0.000153543 -0.000547244 -0.000149606 -0.000543307 -0.000161417 -0.00053937 -0.000161417 -0.00053937 -0.000169291 -0.000531496 -0.000173228 -0.000527559 -0.000177165 -0.000523622 -0.000181102 -0.000523622 -0.000188976 -0.000515748 -0.000188976 -0.000515748 -0.000192913 -0.000507874 -0.000200787 -0.000507874 -0.000208661 -0.000503937 -0.000208661 -0.0005 -0.000212598 -0.000496063 -0.000216535 -0.000492126 -0.000228346 -0.000488189 -0.000224409 -0.000484252 -0.000228346 -0.000480315 -0.00023622 -0.000476378 -0.000240157 -0.000472441 -0.000244094 -0.000468504 -0.000248031 0 0 -0.000464567 -0.000255906 0 0 -0.000464567 -0.000259843 0 0 -0.000456693 -0.00026378 0 0 -0.000452756 -0.000267717 -3.93701e-006 0 -0.000444882 -0.000271654 -3.93701e-006 0 -0.000444882 -0.000275591 -3.93701e-006 0 -0.000437008 -0.000279528 -3.93701e-006 0 -0.000437008 -0.000287402 -3.93701e-006 0 -0.000433071 -0.000291339 0 0 -0.000433071 -0.000295276 0 0 -0.000425197 -0.000299213 -3.93701e-006 0 -0.00042126 -0.00030315 0 0 -0.000417323 -0.000307087 -3.93701e-006 0 -0.000417323 -0.000311024 0 0 -0.000409449 -0.000318898 -3.93701e-006 0 -0.000405512 -0.000322835 -3.93701e-006 0 -0.000401575 -0.000322835 -3.93701e-006 0 -0.000401575 -0.000334646 0 0 -0.000397638 -0.000330709 0 0 -0.000393701 -0.000338583 -3.93701e-006 0 -0.000385827 -0.000346457 -3.93701e-006 0 -0.000385827 -0.000350394 -0.00038189 -0.000350394 -0.00038189 -0.000362205 -0.000374016 -0.000362205 -0.000374016 -0.000366142 -3.14961e-005 -3.14961e-005 -3.14961e-005 -3.14961e-005c-0.00787008,-0.0078937 -0.0126654,-0.0183465 -0.0143858,-0.0313465l-0.000125984 -0.00113386 -0.00264961 -0.0437362 -0.115122 0.101976 -0.00585039 0.00333465 -0.118484 0.0370984 0 0.0982598 0.118732 0.0390866 0.00560236 0.00327165 0.115126 0.101976 0.0246772 0.0218583 0.0567874 0.0503031c0.00456693,0.00346063 0.00879134,0.00519685 0.0126732,0.00519685 0.00375591,0 0.00783465,-0.00162598 0.0122283,-0.0048622l0.195402 -0.174244 0.00572441 -0.00327165 0.11972 -0.0393031 0 -0.0384882 6.29921e-005 6.29921e-005 0 -0.0364646 -0.119075 -0.0602126zm0.0124843 0.203913l-0.19326 0.172331 -0.000944882 0.000755906c-0.0104331,0.00799606 -0.0212126,0.0119961 -0.0323425,0.0119961 -0.0111299,0 -0.0219134,-0.004 -0.0323465,-0.0119961l-0.00088189 -0.000755906 -0.032815 -0.0290669 -0.00929921 0.153488 -0.00182283 0.00648031 -0.0575591 0.110039 0.0695276 0.0695276 0.111594 -0.056315 0.00629134 -0.00170079 0.153492 -0.00929528 0 0 0.0329291 -0.00199606 0.0762283 -0.00461417c0.00542913,-0.000811024 0.00946457,-0.0025315 0.0120945,-0.00516535l6.29921e-005 -6.29921e-005c0.00262992,-0.00262598 0.00435433,-0.00665354 0.00516535,-0.0120669l0.0149606 -0.261346 0.00169685 -0.00635039 0.0568898 -0.112504 -0.0529724 -0.0529764 -0.126689 0.0415945z"/>
 </g>
</svg>
